<svg xmlns="http://www.w3.org/2000/svg" width="102" height="125.742" viewBox="0 0 102 125.742">
  <g id="XMLID_85_" transform="translate(-46.483 0)">
    <path id="XMLID_86_" d="M70.636,19.8A10.743,10.743,0,1,0,55.8,16.514,10.75,10.75,0,0,0,70.636,19.8Z" transform="translate(-5.685 0)" fill="#0e2b89"/>
    <path id="XMLID_87_" d="M147.542,29.917A6.988,6.988,0,0,0,138,27.375L107.349,45.138a6.931,6.931,0,0,0-1.682,1.364L92.942,60.6,84.213,46.9l8.119-3.716a5.924,5.924,0,0,0,1.546-1.034L107.59,29.371a5.821,5.821,0,1,0-7.938-8.515L86.632,32.99l-9.938,4.548a9.432,9.432,0,0,0-9.147.409c-2.161,1.168-5.285,2.65-7.647,6.172-3.189,4.756-12.474,19.208-12.474,19.208A5.811,5.811,0,0,0,48.5,70.9L60.827,81.56a5.818,5.818,0,1,0,7.61-8.8l-8.492-7.347,4.769-7.342,13.3,20.874c.287,1.077,7.815,20.133,8.225,21.169l1.873,33.408a6.985,6.985,0,0,0,13.948-.782L100.12,98.213a7.212,7.212,0,0,0-.473-2.162L93.614,80.69,115.3,56.672,145,39.46A6.984,6.984,0,0,0,147.542,29.917Z" transform="translate(0 -14.369)" fill="#0e2b89"/>
  </g>
</svg>
