<svg xmlns="http://www.w3.org/2000/svg" width="122" height="123.61" viewBox="0 0 122 123.61">
  <g id="happy-children" transform="translate(-1.909 0)">
    <path id="Path_224" data-name="Path 224" d="M64.386,31.389A12.555,12.555,0,0,0,67.53,7.518a13.082,13.082,0,0,1,2.135-1.6,1.186,1.186,0,0,0-.237-2.142,10.369,10.369,0,0,0-6.7.438A13.1,13.1,0,0,1,63.86,1.794,1.187,1.187,0,0,0,62.642.017c-4.525.771-7.955,6.025-9.176,9.037A8.046,8.046,0,0,0,53,10.687a12.556,12.556,0,0,0,11.389,20.7Z" transform="translate(-27.715 0)" fill="#fd1812"/>
    <path id="Path_225" data-name="Path 225" d="M214.647,57.379a4.366,4.366,0,0,0-6.171.227L193.8,73.4a9.825,9.825,0,0,0-4.157-1.71l-6.391-1.013a9.826,9.826,0,0,0-4.531.349L169.64,51.448a4.366,4.366,0,0,0-7.922,3.673l10.52,22.69c-.228.836.063-.872-3.657,23.481l-5.743,7.062.169.208a10.972,10.972,0,0,1,2.459,6.922v21.035c.071,0,.141.011.214.011a5.458,5.458,0,0,0,5.458-5.458V115.449l6.086-7.485L182.632,109l-1.421,8.964a5.462,5.462,0,0,0-.067.924l.248,19.562a5.457,5.457,0,0,0,5.456,5.388h.07a5.458,5.458,0,0,0,5.388-5.527l-.241-19.1c.325-2.049,5.818-36.592,5.852-37.41l16.958-18.252A4.367,4.367,0,0,0,214.647,57.379Z" transform="translate(-92.133 -28.273)" fill="#fd1812"/>
    <path id="Path_226" data-name="Path 226" d="M210.282,55.964a10.46,10.46,0,0,0,9.489-17.247,6.7,6.7,0,0,0-.391-1.36c-1.017-2.509-3.875-6.887-7.644-7.529a.988.988,0,0,0-1.015,1.48,10.9,10.9,0,0,1,.946,2.022,8.634,8.634,0,0,0-5.585-.367.988.988,0,0,0-.2,1.785,10.922,10.922,0,0,1,1.779,1.329,10.459,10.459,0,0,0,2.619,19.887Z" transform="translate(-115.336 -17.232)" fill="#fd1812"/>
    <path id="Path_227" data-name="Path 227" d="M58.877,85.8,54.49,57.606,67.115,30.376a5.241,5.241,0,0,0-9.509-4.409l-10.9,23.506a11.789,11.789,0,0,0-5.44-.419L33.6,50.271A11.791,11.791,0,0,0,28.6,52.317L10.989,33.359A5.241,5.241,0,1,0,3.31,40.493L23.665,62.4s3.042,19.79,7.025,44.9l-.29,22.922a6.552,6.552,0,0,0,6.468,6.634h.084A6.552,6.552,0,0,0,43.5,130.4l.3-23.481a6.549,6.549,0,0,0-.08-1.109L42.011,95.046l6.492-1.24,7.305,8.984v18.752a6.551,6.551,0,1,0,13.1,0V100.463a6.553,6.553,0,0,0-1.468-4.133Z" transform="translate(0 -13.253)" fill="#fd1812"/>
  </g>
</svg>
