<svg xmlns="http://www.w3.org/2000/svg" width="18.185" height="18.185" viewBox="0 0 18.185 18.185">
  <path id="Icon_metro-cross" data-name="Icon metro-cross" d="M20.59,16.537h0L15.073,11.02,20.589,5.5h0a.57.57,0,0,0,0-.8L17.983,2.094a.57.57,0,0,0-.8,0h0L11.663,7.611,6.146,2.094h0a.57.57,0,0,0-.8,0L2.737,4.7a.57.57,0,0,0,0,.8h0L8.253,11.02,2.737,16.537h0a.569.569,0,0,0,0,.8l2.606,2.606a.57.57,0,0,0,.8,0h0l5.517-5.517,5.517,5.517h0a.569.569,0,0,0,.8,0l2.606-2.606a.569.569,0,0,0,0-.8Z" transform="translate(-2.571 -1.928)" fill="#686868"/>
</svg>
