<?xml version="1.0" encoding="utf-8"?>
<svg viewBox="2.321 0.736 35.249 33.368" xmlns="http://www.w3.org/2000/svg">
  <path id="Path_111" data-name="Path 111" d="M 29.17 54.53 L 23.228 50.568 C 22.962 50.392 22.606 50.45 22.409 50.701 L 20.679 52.925 C 20.118 53.656 19.106 53.864 18.302 53.415 L 17.982 53.24 C 15.943 52.13 14.104 50.689 12.539 48.976 C 10.825 47.411 9.384 45.571 8.276 43.533 L 8.099 43.212 C 7.649 42.408 7.858 41.397 8.589 40.837 L 10.813 39.106 C 11.063 38.91 11.121 38.554 10.946 38.288 L 6.985 32.345 C 6.805 32.075 6.445 31.994 6.166 32.16 L 3.68 33.651 C 3.147 33.962 2.754 34.467 2.585 35.062 C 1.768 38.035 2.456 43.243 10.364 51.152 C 18.272 59.061 23.478 59.748 26.454 58.932 C 27.049 58.762 27.554 58.369 27.865 57.836 L 29.356 55.35 C 29.523 55.07 29.441 54.709 29.17 54.53 Z" fill="#0e2b89" style="" transform="matrix(1, 0, 0, 1, 0, -25.091999)"/>
  <path id="Path_112" data-name="Path 112" d="M 37.47 25.928 C 37.405 25.863 37.316 25.827 37.224 25.828 L 10.844 25.828 C 10.651 25.825 10.496 25.982 10.498 26.174 L 10.498 35.339 L 11.993 37.583 C 12.531 38.397 12.353 39.488 11.586 40.091 L 9.364 41.821 C 9.127 42.002 9.057 42.329 9.202 42.59 L 9.383 42.925 C 9.961 44.024 10.666 45.052 11.484 45.987 L 37.224 45.987 C 37.413 45.988 37.568 45.836 37.57 45.648 L 37.57 26.171 C 37.57 26.079 37.534 25.993 37.47 25.928 Z M 19.58 37.381 L 19.58 37.381 L 13.131 44.291 C 12.786 44.632 12.202 44.473 12.078 44.004 C 12.026 43.803 12.075 43.589 12.211 43.432 L 18.661 36.526 C 19.004 36.184 19.589 36.343 19.712 36.811 C 19.766 37.012 19.716 37.227 19.58 37.384 Z M 24.033 36.885 C 23.579 36.886 23.136 36.739 22.774 36.467 L 12.251 28.487 C 11.852 28.21 11.901 27.605 12.341 27.397 C 12.563 27.292 12.827 27.326 13.015 27.484 L 23.534 35.464 C 23.832 35.68 24.236 35.68 24.533 35.464 L 35.055 27.484 C 35.442 27.19 36 27.425 36.061 27.906 C 36.089 28.129 35.996 28.351 35.817 28.487 L 25.292 36.467 C 24.929 36.738 24.487 36.884 24.033 36.883 Z M 35.864 44.319 C 35.61 44.557 35.211 44.542 34.974 44.288 L 28.524 37.378 C 28.217 37.003 28.432 36.436 28.91 36.358 C 29.103 36.327 29.301 36.388 29.444 36.522 L 35.891 43.429 C 36.128 43.681 36.115 44.078 35.865 44.316 Z" fill="#0e2b89" style="" transform="matrix(1, 0, 0, 1, 0, -25.091999)"/>
</svg>