<svg xmlns="http://www.w3.org/2000/svg" xmlns:xlink="http://www.w3.org/1999/xlink" width="109" height="120.166" viewBox="0 0 109 120.166">
  <defs>
    <filter id="Path_115" x="0" y="0" width="109" height="120.166" filterUnits="userSpaceOnUse">
      <feOffset dx="13" dy="9" input="SourceAlpha"/>
      <feGaussianBlur stdDeviation="3" result="blur"/>
      <feFlood flood-color="#fd1812" flood-opacity="0.251"/>
      <feComposite operator="in" in2="blur"/>
      <feComposite in="SourceGraphic"/>
    </filter>
  </defs>
  <g id="surface1" transform="translate(0 0.001)">
    <path id="Path_114" data-name="Path 114" d="M139.907,158.457a19.466,19.466,0,1,0,19.466,19.466A19.488,19.488,0,0,0,139.907,158.457Zm11.557,15.8L137.519,188.2a3,3,0,0,1-4.239,0l-5.329-5.329a3,3,0,0,1,4.239-4.239l3.21,3.21,11.827-11.826a3,3,0,1,1,4.239,4.239Zm0,0" transform="translate(-96.408 -126.839)" fill="#fd1812"/>
    <g transform="matrix(1, 0, 0, 1, 0, 0)" filter="url(#Path_115)">
      <path id="Path_115-2" data-name="Path 115" d="M86.9,27.719l0-.079c-.044-.981-.074-2.02-.092-3.175a10.828,10.828,0,0,0-10.2-10.608C64.862,13.2,55.775,9.371,48.011,1.8l-.066-.063a6.538,6.538,0,0,0-8.886,0l-.066.063c-7.764,7.568-16.851,11.4-28.6,12.054A10.827,10.827,0,0,0,.2,24.466C.182,25.613.151,26.651.107,27.64l0,.185C-.126,39.8-.41,54.71,4.577,68.24A51.448,51.448,0,0,0,16.92,87.466c6.2,6.055,14.331,10.862,24.154,14.287a7.483,7.483,0,0,0,.99.27,7.311,7.311,0,0,0,2.875,0,7.505,7.505,0,0,0,.994-.271c9.811-3.431,17.929-8.241,24.128-14.295A51.52,51.52,0,0,0,82.4,68.226C87.409,54.655,87.126,39.72,86.9,27.719ZM43.5,76.545A25.461,25.461,0,1,1,68.961,51.084,25.49,25.49,0,0,1,43.5,76.545Zm0,0" transform="translate(0 0)" fill="#fd1812"/>
    </g>
  </g>
</svg>
