<svg xmlns="http://www.w3.org/2000/svg" xmlns:xlink="http://www.w3.org/1999/xlink" width="124.162" height="120.163" viewBox="0 0 124.162 120.163">
  <defs>
    <filter id="Path_119" x="0" y="0" width="124.162" height="120.163" filterUnits="userSpaceOnUse">
      <feOffset dx="13" dy="9" input="SourceAlpha"/>
      <feGaussianBlur stdDeviation="3" result="blur"/>
      <feFlood flood-color="#fd1812" flood-opacity="0.251"/>
      <feComposite operator="in" in2="blur"/>
      <feComposite in="SourceGraphic"/>
    </filter>
  </defs>
  <g id="excited" transform="translate(-0.5)">
    <path id="Path_116" data-name="Path 116" d="M180.837,316.936A19.127,19.127,0,0,0,199.7,300.844H161.976a19.127,19.127,0,0,0,18.861,16.092Zm0,0" transform="translate(-129.256 -240.814)" fill="#fd1812"/>
    <path id="Path_117" data-name="Path 117" d="M323.976,154.485l-1.207-1.762-1.207,1.762a3,3,0,0,1-1.631,1.185l-2.049.6,1.3,1.692a3.006,3.006,0,0,1,.623,1.917l-.059,2.135,2.012-.716a3,3,0,0,1,2.016,0l2.012.716-.059-2.135a3,3,0,0,1,.623-1.917l1.3-1.692-2.049-.6A3.01,3.01,0,0,1,323.976,154.485Zm0,0" transform="translate(-254.054 -122.249)" fill="#fd1812"/>
    <path id="Path_118" data-name="Path 118" d="M148.067,159.882l-.06,2.135,2.013-.716a3.009,3.009,0,0,1,2.016,0l2.012.716-.06-2.135a3.006,3.006,0,0,1,.624-1.917l1.3-1.692-2.048-.6a3.006,3.006,0,0,1-1.631-1.185l-1.207-1.762-1.206,1.762a3.006,3.006,0,0,1-1.631,1.185l-2.048.6,1.3,1.692A3.006,3.006,0,0,1,148.067,159.882Zm0,0" transform="translate(-116.58 -122.249)" fill="#fd1812"/>
    <g transform="matrix(1, 0, 0, 1, 0.5, 0)" filter="url(#Path_119)">
      <path id="Path_119-2" data-name="Path 119" d="M87.7,14.961A51.082,51.082,0,0,0,15.461,87.2,51.082,51.082,0,0,0,87.7,14.961ZM22.121,34.214A3,3,0,0,1,23.654,29.5l5.232-1.54,3.081-4.5a3.005,3.005,0,0,1,4.959,0l3.082,4.5,5.232,1.54a3.006,3.006,0,0,1,1.532,4.716l-3.327,4.321.152,5.452A3.006,3.006,0,0,1,39.584,46.9l-5.137-1.829L29.309,46.9A3.005,3.005,0,0,1,25.3,43.987l.152-5.452ZM29.479,54.02h44.2a3,3,0,0,1,3,3,25.107,25.107,0,0,1-50.213,0,3,3,0,0,1,3-3ZM81.04,34.214l-3.327,4.321.152,5.452A3,3,0,0,1,73.854,46.9l-5.138-1.829L63.577,46.9a3,3,0,0,1-4.011-2.914l.152-5.452-3.327-4.321A3,3,0,0,1,57.923,29.5l5.232-1.54,3.082-4.5a3,3,0,0,1,4.958,0l3.082,4.5,5.232,1.54a3,3,0,0,1,1.532,4.716Zm0,0" transform="translate(-0.5)" fill="#fd1812"/>
    </g>
  </g>
</svg>
