<svg xmlns="http://www.w3.org/2000/svg" xmlns:xlink="http://www.w3.org/1999/xlink" width="154.425" height="106.56" viewBox="0 0 154.425 106.56">
  <defs>
    <filter id="Path_132" x="0" y="0" width="154.425" height="100.248" filterUnits="userSpaceOnUse">
      <feOffset dx="13" dy="9" input="SourceAlpha"/>
      <feGaussianBlur stdDeviation="3" result="blur"/>
      <feFlood flood-color="#fd1812" flood-opacity="0.251"/>
      <feComposite operator="in" in2="blur"/>
      <feComposite in="SourceGraphic"/>
    </filter>
  </defs>
  <g id="instructor" transform="translate(0 -50)">
    <path id="Path_131" data-name="Path 131" d="M87.5,290.982a26.016,26.016,0,0,1-17.376-6.635A26.633,26.633,0,0,0,65,300.034v22.5a7.768,7.768,0,0,0,7.759,7.759h29.485A7.768,7.768,0,0,0,110,322.536v-22.5a26.633,26.633,0,0,0-5.126-15.687A26.016,26.016,0,0,1,87.5,290.982Z" transform="translate(-48.188 -173.735)" fill="#fd1812"/>
    <g transform="matrix(1, 0, 0, 1, 0, 50)" filter="url(#Path_132)">
      <path id="Path_132-2" data-name="Path 132" d="M120.786,50H11.639A11.652,11.652,0,0,0,0,61.639v58.97a11.657,11.657,0,0,0,9.052,11.346V126.3a34.366,34.366,0,0,1,7.717-21.668c.037-.045.076-.088.113-.133a26.123,26.123,0,1,1,44.862,0c.038.044.076.088.114.133A34.367,34.367,0,0,1,69.575,126.3v5.949h51.211a11.652,11.652,0,0,0,11.639-11.639V61.639A11.652,11.652,0,0,0,120.786,50Zm-46.3,61.557a3.88,3.88,0,1,1,3.88-3.88A3.88,3.88,0,0,1,74.489,111.557Zm0-16.553a3.88,3.88,0,1,1,3.88-3.88A3.88,3.88,0,0,1,74.489,95Zm0-16.553a3.88,3.88,0,1,1,3.88-3.88A3.88,3.88,0,0,1,74.489,78.451Zm37.244,33.106H91.042a3.88,3.88,0,1,1,0-7.759h20.691a3.88,3.88,0,1,1,0,7.759Zm0-16.553H91.042a3.88,3.88,0,1,1,0-7.759h20.691a3.88,3.88,0,0,1,0,7.759Zm0-16.553H91.042a3.88,3.88,0,1,1,0-7.759h20.691a3.88,3.88,0,0,1,0,7.759Z" transform="translate(0 -50)" fill="#fd1812"/>
    </g>
    <ellipse id="Ellipse_35" data-name="Ellipse 35" cx="18.62" cy="18.165" rx="18.62" ry="18.165" transform="translate(20.89 72.999)" fill="#fd1812"/>
  </g>
</svg>
