<?xml version="1.0" encoding="utf-8"?>
<svg viewBox="0 0 42 38.336" xmlns="http://www.w3.org/2000/svg">
  <g id="_3d-buildings" data-name="3d-buildings" transform="matrix(1, 0, 0, 1, 0, -25.091999)">
    <path id="Path_145" data-name="Path 145" d="M41.535,39.958,35.586,38.13V33.7a.658.658,0,0,0-.368-.592l-16.065-7.95H19.14a.639.639,0,0,0-.324-.062.657.657,0,0,0-.339.117h0L7.02,33.38a.661.661,0,0,0-.278.538v5.7l-2.129-.254-.019,0a.83.83,0,0,0-.153,0,.727.727,0,0,0-.168.045l-.006,0L.393,41.137a.66.66,0,0,0-.393.6V52.793a.659.659,0,0,0,.343.579L4.226,55.5a.667.667,0,0,0,.224.074.68.68,0,0,0,.189,0l2.1-.306v1.218a.662.662,0,0,0,.343.58L18.54,63.345a.716.716,0,0,0,.295.082.727.727,0,0,0,.253-.04v0h0l16.066-6.108,6.416-2.44A.661.661,0,0,0,42,54.218V40.59A.655.655,0,0,0,41.535,39.958ZM1.844,50.046a.218.218,0,0,1-.088.175.219.219,0,0,1-.192.038l-.735-.2a.221.221,0,0,1-.162-.213v-2.05a.221.221,0,0,1,.072-.164.217.217,0,0,1,.169-.055l.735.071a.221.221,0,0,1,.2.219v2.183h0Zm0-4.366a.221.221,0,0,1-.2.22l-.735.061H.887a.219.219,0,0,1-.221-.22v-2.05a.22.22,0,0,1,.164-.213l.736-.194a.221.221,0,0,1,.19.039.217.217,0,0,1,.086.173v2.183h0Zm2.15,4.963a.219.219,0,0,1-.22.22.225.225,0,0,1-.059-.008l-1.008-.281a.22.22,0,0,1-.162-.212V47.974a.221.221,0,0,1,.072-.163.218.218,0,0,1,.17-.055l1.008.1a.219.219,0,0,1,.2.219v2.571h0Zm0-5.14a.222.222,0,0,1-.2.22l-1.009.083H2.765a.221.221,0,0,1-.221-.221V43.2a.222.222,0,0,1,.164-.214l1.009-.265a.218.218,0,0,1,.19.038.222.222,0,0,1,.086.174Zm5.518,6.672a.221.221,0,0,1-.22.221.212.212,0,0,1-.059-.008l-1.3-.361a.221.221,0,0,1-.162-.212V48.485a.219.219,0,0,1,.072-.164.225.225,0,0,1,.169-.057l1.3.128a.219.219,0,0,1,.2.219v3.565Zm0-7.128a.219.219,0,0,1-.2.219l-1.3.107H7.992a.219.219,0,0,1-.149-.058.221.221,0,0,1-.071-.163V41.824a.22.22,0,0,1,.164-.213l1.3-.342a.221.221,0,0,1,.276.213v3.566Zm0-7.13a.22.22,0,0,1-.13.2l-1.3.575a.223.223,0,0,1-.089.02.226.226,0,0,1-.121-.036.222.222,0,0,1-.1-.185V35.164a.221.221,0,0,1,.1-.187l1.3-.81a.22.22,0,0,1,.337.187v3.564Zm3.239,15.157a.221.221,0,0,1-.22.221.225.225,0,0,1-.059-.008L10.731,52.8a.22.22,0,0,1-.162-.212V48.757a.221.221,0,0,1,.072-.164.224.224,0,0,1,.169-.055l1.743.17a.22.22,0,0,1,.2.219v4.148Zm0-8.3a.22.22,0,0,1-.2.22l-1.742.144h-.019a.222.222,0,0,1-.221-.222V41.089a.22.22,0,0,1,.164-.213l1.742-.458a.217.217,0,0,1,.19.038.22.22,0,0,1,.086.174V44.78Zm0-8.3a.22.22,0,0,1-.13.2l-1.742.771a.208.208,0,0,1-.089.019.22.22,0,0,1-.22-.221V33.421a.22.22,0,0,1,.1-.187l1.742-1.086a.22.22,0,0,1,.337.187v4.148Zm4.508,17.844a.238.238,0,0,1-.071.172.309.309,0,0,1-.226.081h0a15.1,15.1,0,0,1-2.452-.727.219.219,0,0,1-.145-.207V49.128a.223.223,0,0,1,.071-.163.22.22,0,0,1,.17-.055l2.455.239a.221.221,0,0,1,.2.219C17.259,49.416,17.257,54.116,17.259,54.328Zm0-9.92a.22.22,0,0,1-.2.219l-2.455.2h-.018a.222.222,0,0,1-.221-.222V40.091a.22.22,0,0,1,.164-.213l2.455-.645a.217.217,0,0,1,.19.038.22.22,0,0,1,.086.174v4.962h0Zm0-9.92a.22.22,0,0,1-.131.2l-2.455,1.088a.208.208,0,0,1-.089.019.226.226,0,0,1-.121-.036.221.221,0,0,1-.1-.185V31.057a.221.221,0,0,1,.1-.188l2.455-1.529a.22.22,0,0,1,.337.187v4.961Zm9.759-2.473a.221.221,0,0,1,.307-.2l2.62,1.133a.221.221,0,0,1,.133.2v3.913a.222.222,0,0,1-.22.221.223.223,0,0,1-.064-.01l-2.62-.805a.22.22,0,0,1-.156-.21V32.015h0Zm0,8.482a.219.219,0,0,1,.259-.216l2.621.477a.22.22,0,0,1,.18.216v3.95a.221.221,0,0,1-.221.221h-.015l-2.62-.187a.22.22,0,0,1-.2-.219V40.5ZM20.2,29.066a.22.22,0,0,1,.307-.2l3.722,1.609a.221.221,0,0,1,.133.2V35.3a.222.222,0,0,1-.22.221.235.235,0,0,1-.065-.01l-3.722-1.144a.219.219,0,0,1-.156-.21v-5.1Zm0,15.281V39.253a.219.219,0,0,1,.259-.216l3.722.678a.222.222,0,0,1,.181.217v4.628a.221.221,0,0,1-.221.221h-.013L20.4,44.568A.222.222,0,0,1,20.2,44.347Zm7.262,15.234a.221.221,0,0,1-.142.206l-4.871,1.852a.215.215,0,0,1-.078.014.225.225,0,0,1-.125-.038.219.219,0,0,1-.095-.181V49.308a.22.22,0,0,1,.206-.22l4.871-.33a.22.22,0,0,1,.165.059.217.217,0,0,1,.07.161v10.6Zm5.87-2.232a.218.218,0,0,1-.142.206l-3.25,1.236a.218.218,0,0,1-.079.015.227.227,0,0,1-.125-.039.222.222,0,0,1-.095-.181V48.8a.22.22,0,0,1,.206-.22l3.25-.22a.219.219,0,0,1,.235.219Zm.939-12.222a.221.221,0,0,1-.221.221h-.013l-1.945-.112a.22.22,0,0,1-.207-.22V41.383a.219.219,0,0,1,.26-.217l1.944.355a.22.22,0,0,1,.181.216v3.391Zm0-6.779a.222.222,0,0,1-.22.221.208.208,0,0,1-.065-.011l-1.944-.6a.22.22,0,0,1-.155-.21V34.118a.221.221,0,0,1,.1-.184.219.219,0,0,1,.208-.018l1.945.84a.221.221,0,0,1,.133.2v3.39h0Zm3.886,12.81a.22.22,0,0,1-.179.216l-1.413.273a.221.221,0,0,1-.261-.216v-3.08a.22.22,0,0,1,.206-.22l1.413-.1a.225.225,0,0,1,.165.059.217.217,0,0,1,.07.161v2.9h0Zm0-5.808a.221.221,0,0,1-.221.22H37.92l-1.413-.081a.22.22,0,0,1-.207-.22v-3.08a.22.22,0,0,1,.079-.169.223.223,0,0,1,.181-.048l1.412.257a.221.221,0,0,1,.181.217v2.9ZM40.542,50.7a.22.22,0,0,1-.179.216l-1.13.218a.221.221,0,0,1-.261-.216V48.168a.22.22,0,0,1,.206-.219l1.13-.077a.225.225,0,0,1,.165.058.221.221,0,0,1,.07.162v2.6Zm0-5.211a.223.223,0,0,1-.069.161.221.221,0,0,1-.151.06H40.31l-1.13-.064a.22.22,0,0,1-.207-.22V42.711a.221.221,0,0,1,.253-.219l1.13.171a.22.22,0,0,1,.187.218v2.606h0Z" fill="#0e2b89"/>
  </g>
</svg>