<svg xmlns="http://www.w3.org/2000/svg" width="90.285" height="117.762" viewBox="0 0 90.285 117.762">
  <g id="pencil" transform="translate(-36.187)">
    <path id="Path_228" data-name="Path 228" d="M99.412,96.834V183.8a7.851,7.851,0,0,0,7.851,7.851h74.583A7.851,7.851,0,0,0,189.7,183.8V96.834Z" transform="translate(-63.226 -73.89)" fill="#f9f5f3"/>
    <path id="Path_229" data-name="Path 229" d="M432.165,96.834V183.8a7.851,7.851,0,0,1-7.851,7.851h5.45a7.851,7.851,0,0,0,7.851-7.851V96.834Z" transform="translate(-311.143 -73.89)" fill="#f9eae0"/>
    <g id="Group_214" data-name="Group 214" transform="translate(48.148 37.477)">
      <g id="Group_213" data-name="Group 213">
        <path id="Path_237" data-name="Path 237" d="M214.48,161.721H151.673a1.777,1.777,0,0,1,0-3.554H214.48a1.777,1.777,0,0,1,0,3.554Z" transform="translate(-149.896 -158.167)" fill="#0e2b89"/>
      </g>
    </g>
    <g id="Group_216" data-name="Group 216" transform="translate(48.148 49.253)">
      <g id="Group_215" data-name="Group 215">
        <path id="Path_238" data-name="Path 238" d="M214.48,211.421H151.673a1.777,1.777,0,1,1,0-3.554H214.48a1.777,1.777,0,1,1,0,3.554Z" transform="translate(-149.896 -207.867)" fill="#0e2b89"/>
      </g>
    </g>
    <g id="Group_218" data-name="Group 218" transform="translate(48.148 61.029)">
      <g id="Group_217" data-name="Group 217">
        <path id="Path_239" data-name="Path 239" d="M214.48,261.121H151.673a1.777,1.777,0,1,1,0-3.554H214.48a1.777,1.777,0,1,1,0,3.554Z" transform="translate(-149.896 -257.567)" fill="#0e2b89"/>
      </g>
    </g>
    <g id="Group_220" data-name="Group 220" transform="translate(48.148 72.806)">
      <g id="Group_219" data-name="Group 219">
        <path id="Path_240" data-name="Path 240" d="M214.48,310.821H151.673a1.777,1.777,0,0,1,0-3.554H214.48a1.777,1.777,0,0,1,0,3.554Z" transform="translate(-149.896 -307.267)" fill="#0e2b89"/>
      </g>
    </g>
    <g id="Group_222" data-name="Group 222" transform="translate(69.738 84.582)">
      <g id="Group_221" data-name="Group 221">
        <path id="Path_241" data-name="Path 241" d="M284.007,360.521H242.79a1.777,1.777,0,0,1,0-3.554h41.217a1.777,1.777,0,1,1,0,3.554Z" transform="translate(-241.013 -356.967)" fill="#0e2b89"/>
      </g>
    </g>
    <path id="Path_242" data-name="Path 242" d="M181.846,33.134H107.263a7.851,7.851,0,0,0-7.851,7.851V52.761H189.7V40.984a7.85,7.85,0,0,0-7.85-7.85Z" transform="translate(-63.225 -25.283)" fill="#fd1812"/>
    <path id="Path_243" data-name="Path 243" d="M429.764,33.134h-5.45a7.851,7.851,0,0,1,7.851,7.851V52.761h5.45V40.984a7.851,7.851,0,0,0-7.851-7.85Z" transform="translate(-311.143 -25.283)" fill="#de352f"/>
    <g id="Group_223" data-name="Group 223" transform="translate(47.963 0)">
      <path id="Path_244" data-name="Path 244" d="M149.113,11.776a3.925,3.925,0,0,0,7.851,0V3.925a3.925,3.925,0,0,0-7.851,0Z" transform="translate(-149.113 0)" fill="#bdd3dd"/>
      <path id="Path_245" data-name="Path 245" d="M397.613,11.776a3.925,3.925,0,0,0,7.851,0V3.925a3.925,3.925,0,0,0-7.851,0Z" transform="translate(-338.732 0)" fill="#bdd3dd"/>
      <path id="Path_246" data-name="Path 246" d="M231.946,11.776a3.925,3.925,0,1,0,7.851,0V3.925a3.925,3.925,0,1,0-7.851,0Z" transform="translate(-212.319 0)" fill="#bdd3dd"/>
      <path id="Path_247" data-name="Path 247" d="M314.78,11.776a3.925,3.925,0,0,0,7.851,0V3.925a3.925,3.925,0,0,0-7.851,0Z" transform="translate(-275.526 0)" fill="#bdd3dd"/>
    </g>
    <path id="Path_248" data-name="Path 248" d="M405.4,0a3.91,3.91,0,0,0-2.725,1.1,3.912,3.912,0,0,1,1.2,2.822v7.851a3.912,3.912,0,0,1-1.2,2.822,3.923,3.923,0,0,0,6.65-2.822V3.925A3.925,3.925,0,0,0,405.4,0Z" transform="translate(-294.635)" fill="#abc4d6"/>
    <path id="Path_249" data-name="Path 249" d="M322.572,0a3.91,3.91,0,0,0-2.725,1.1,3.912,3.912,0,0,1,1.2,2.822v7.851a3.912,3.912,0,0,1-1.2,2.822,3.923,3.923,0,0,0,6.65-2.822V3.925A3.926,3.926,0,0,0,322.572,0Z" transform="translate(-231.429)" fill="#abc4d6"/>
    <path id="Path_250" data-name="Path 250" d="M239.738,0a3.91,3.91,0,0,0-2.725,1.1,3.912,3.912,0,0,1,1.2,2.822v7.851a3.912,3.912,0,0,1-1.2,2.822,3.923,3.923,0,0,0,6.65-2.822V3.925A3.925,3.925,0,0,0,239.738,0Z" transform="translate(-168.222)" fill="#abc4d6"/>
    <path id="Path_251" data-name="Path 251" d="M156.9,0a3.91,3.91,0,0,0-2.725,1.1,3.912,3.912,0,0,1,1.2,2.822v7.851a3.912,3.912,0,0,1-1.2,2.822,3.923,3.923,0,0,0,6.65-2.822V3.925A3.925,3.925,0,0,0,156.9,0Z" transform="translate(-105.016)" fill="#abc4d6"/>
  </g>
</svg>
