<svg xmlns="http://www.w3.org/2000/svg" width="500" height="500" viewBox="0 0 500 500">
  <g id="Images-rafiki_1_" data-name="Images-rafiki (1)" transform="translate(0 -55)">
    <g id="freepik--background-complete--inject-31" transform="translate(0 55)">
      <g id="freepik--background-complete--inject-31-2" data-name="freepik--background-complete--inject-31">
        <rect id="Rectangle_200" data-name="Rectangle 200" width="500" height="0.25" transform="translate(0 454.84)" fill="#ebebeb"/>
        <rect id="Rectangle_201" data-name="Rectangle 201" width="10.48" height="0.25" transform="translate(142.02 460.88)" fill="#ebebeb"/>
        <rect id="Rectangle_202" data-name="Rectangle 202" width="17.85" height="0.25" transform="translate(448.33 467.44)" fill="#ebebeb"/>
        <rect id="Rectangle_203" data-name="Rectangle 203" width="59.15" height="0.25" transform="translate(322.74 461)" fill="#ebebeb"/>
        <rect id="Rectangle_204" data-name="Rectangle 204" width="45.25" height="0.25" transform="translate(188.64 466.7)" fill="#ebebeb"/>
        <rect id="Rectangle_205" data-name="Rectangle 205" width="15.68" height="0.25" transform="translate(124 465.12)" fill="#ebebeb"/>
        <rect id="Rectangle_206" data-name="Rectangle 206" width="22.56" height="0.25" transform="translate(403.78 466.7)" fill="#ebebeb"/>
        <rect id="Rectangle_207" data-name="Rectangle 207" width="53.24" height="0.25" transform="translate(64.93 465)" fill="#ebebeb"/>
        <path id="Path_252" data-name="Path 252" d="M237,337.8H43.91a5.71,5.71,0,0,1-5.7-5.71V60.66A5.71,5.71,0,0,1,43.91,55H237a5.71,5.71,0,0,1,5.71,5.71h0V332.09A5.71,5.71,0,0,1,237,337.8ZM43.91,55.2a5.46,5.46,0,0,0-5.45,5.46V332.09a5.46,5.46,0,0,0,5.45,5.46H237a5.48,5.48,0,0,0,5.46-5.46V60.66A5.48,5.48,0,0,0,237,55.2Z" transform="translate(0 -55)" fill="#ebebeb"/>
        <path id="Path_253" data-name="Path 253" d="M453.31,337.8H260.21a5.73,5.73,0,0,1-5.71-5.71V60.66A5.72,5.72,0,0,1,260.21,55h193.1A5.71,5.71,0,0,1,459,60.66V332.09a5.7,5.7,0,0,1-5.69,5.71ZM260.21,55.2a5.48,5.48,0,0,0-5.46,5.46V332.09a5.48,5.48,0,0,0,5.46,5.46h193.1a5.48,5.48,0,0,0,5.46-5.46V60.66a5.48,5.48,0,0,0-5.46-5.46Z" transform="translate(0 -55)" fill="#ebebeb"/>
        <rect id="Rectangle_208" data-name="Rectangle 208" width="126.24" height="188.94" transform="translate(77.55 29.63)" fill="#e6e6e6"/>
        <rect id="Rectangle_209" data-name="Rectangle 209" width="126.24" height="188.94" transform="translate(74.75 29.63)" fill="#f5f5f5"/>
        <rect id="Rectangle_210" data-name="Rectangle 210" width="116.17" height="177.63" transform="translate(79.78 35.29)" fill="#fff"/>
        <rect id="Rectangle_211" data-name="Rectangle 211" width="2.12" height="177.63" transform="translate(79.79 35.28)" fill="#e6e6e6"/>
        <rect id="Rectangle_212" data-name="Rectangle 212" width="122.07" height="7.59" transform="translate(76.83 218.252)" fill="#f5f5f5"/>
        <rect id="Rectangle_213" data-name="Rectangle 213" width="129.4" height="38.86" transform="translate(69.51 21.05)" fill="#f0f0f0" opacity="0.4"/>
        <path id="Path_254" data-name="Path 254" d="M69.26,75.27h140A.78.78,0,0,1,210,76h0a.78.78,0,0,1-.78.78h-140a.78.78,0,0,1-.77-.78h0A.79.79,0,0,1,69.26,75.27Z" transform="translate(0 -55)" fill="#e6e6e6"/>
        <path id="Path_255" data-name="Path 255" d="M64.61,76a3.88,3.88,0,1,0,3.89-3.87h0A3.88,3.88,0,0,0,64.61,76Z" transform="translate(0 -55)" fill="#e6e6e6"/>
        <path id="Path_256" data-name="Path 256" d="M202.75,80.38h0a1.05,1.05,0,0,0,1.05-1V77.09a1.05,1.05,0,0,0-1.05-1h0a1,1,0,0,0-1.05,1v2.3a1,1,0,0,0,1,1Z" transform="translate(0 -55)" fill="#e6e6e6"/>
        <path id="Path_257" data-name="Path 257" d="M81,80.38h0a1,1,0,0,0,1-1V77.09a1,1,0,0,0-1-1h0a1,1,0,0,0-1,1v2.25a1,1,0,0,0,1,1Z" transform="translate(0 -55)" fill="#e6e6e6"/>
        <path id="Path_258" data-name="Path 258" d="M186.41,76a3.88,3.88,0,1,0,3.89-3.87h0A3.88,3.88,0,0,0,186.41,76Z" transform="translate(0 -55)" fill="#e6e6e6"/>
        <rect id="Rectangle_214" data-name="Rectangle 214" width="36.52" height="80.96" transform="translate(392.71 368.74)" fill="#e6e6e6"/>
        <rect id="Rectangle_215" data-name="Rectangle 215" width="180.08" height="5.13" transform="translate(242.14 449.71)" fill="#e6e6e6"/>
        <rect id="Rectangle_216" data-name="Rectangle 216" width="157.59" height="80.96" transform="translate(235.12 368.75)" fill="#f5f5f5"/>
        <rect id="Rectangle_217" data-name="Rectangle 217" width="128.88" height="26.55" transform="translate(249.48 353.348)" fill="#e6e6e6"/>
        <rect id="Rectangle_218" data-name="Rectangle 218" width="128.88" height="26.55" transform="translate(249.48 413.19)" fill="#e6e6e6"/>
        <rect id="Rectangle_219" data-name="Rectangle 219" width="36.06" height="3.64" rx="1.61" transform="translate(295.88 362.199)" fill="#f5f5f5"/>
        <rect id="Rectangle_220" data-name="Rectangle 220" width="36.06" height="3.64" rx="1.61" transform="translate(295.88 424.64)" fill="#f5f5f5"/>
        <circle id="Ellipse_39" data-name="Ellipse 39" cx="8.08" cy="8.08" r="8.08" transform="translate(341.09 297.495)" fill="#f5f5f5"/>
        <circle id="Ellipse_40" data-name="Ellipse 40" cx="8.05" cy="8.05" r="8.05" transform="translate(326.54 295.014)" fill="#f5f5f5"/>
        <circle id="Ellipse_41" data-name="Ellipse 41" cx="8.05" cy="8.05" r="8.05" transform="translate(287.62 300.196)" fill="#f5f5f5"/>
        <circle id="Ellipse_42" data-name="Ellipse 42" cx="8.05" cy="8.05" r="8.05" transform="translate(308.37 305.379)" fill="#f5f5f5"/>
        <path id="Path_259" data-name="Path 259" d="M370.63,277.79s-1.3,18.52-51.26,18.52-51.26-18.52-51.26-18.52Z" transform="translate(0 33.249)" fill="#e6e6e6"/>
        <rect id="Rectangle_221" data-name="Rectangle 221" width="18.23" height="79.06" transform="translate(182.27 370.77)" fill="#e6e6e6"/>
        <rect id="Rectangle_222" data-name="Rectangle 222" width="118.24" height="5.01" transform="translate(78.75 449.83)" fill="#e6e6e6"/>
        <rect id="Rectangle_223" data-name="Rectangle 223" width="107.01" height="79.06" transform="translate(75.25 370.77)" fill="#f5f5f5"/>
        <rect id="Rectangle_224" data-name="Rectangle 224" width="92.68" height="25.93" transform="translate(82.42 355.662)" fill="#e6e6e6"/>
        <rect id="Rectangle_225" data-name="Rectangle 225" width="92.68" height="25.93" transform="translate(82.42 414.17)" fill="#e6e6e6"/>
        <path id="Path_260" data-name="Path 260" d="M114.72,311.23h28.07a3.48,3.48,0,0,0,3.46-3.45h0a3.47,3.47,0,0,0-3.46-3.46H114.72a3.48,3.48,0,0,0-3.45,3.46h0a3.47,3.47,0,0,0,3.45,3.45Z" transform="translate(0 40.318)" fill="#f5f5f5"/>
        <path id="Path_261" data-name="Path 261" d="M114.72,344.9h28.07a3.47,3.47,0,0,0,3.46-3.46h0a3.48,3.48,0,0,0-3.46-3.45H114.72a3.47,3.47,0,0,0-3.45,3.45h0a3.48,3.48,0,0,0,3.45,3.46Z" transform="translate(0 72.44)" fill="#f5f5f5"/>
        <rect id="Rectangle_226" data-name="Rectangle 226" width="52.34" height="106.54" transform="translate(279.65 47.04)" fill="#ebebeb"/>
        <rect id="Rectangle_227" data-name="Rectangle 227" width="55.41" height="106.54" transform="translate(275.45 47.04)" fill="#f5f5f5"/>
        <rect id="Rectangle_228" data-name="Rectangle 228" width="39.29" height="90.42" transform="translate(283.5 83.207)" fill="#fff"/>
        <rect id="Rectangle_229" data-name="Rectangle 229" width="28.66" height="33.02" transform="translate(401.42 146.758)" fill="#ebebeb"/>
        <rect id="Rectangle_230" data-name="Rectangle 230" width="31.06" height="33.02" transform="translate(395.62 146.758)" fill="#f5f5f5"/>
        <rect id="Rectangle_231" data-name="Rectangle 231" width="25.85" height="27.81" transform="translate(398.23 149.715)" fill="#fff"/>
        <rect id="Rectangle_232" data-name="Rectangle 232" width="13.32" height="14.33" rx="2.28" transform="translate(404.49 157.296)" fill="#f0f0f0"/>
        <rect id="Rectangle_233" data-name="Rectangle 233" width="28.66" height="33.02" transform="translate(378.32 81.761)" fill="#ebebeb"/>
        <rect id="Rectangle_234" data-name="Rectangle 234" width="31.06" height="33.02" transform="translate(372.53 81.761)" fill="#f5f5f5"/>
        <rect id="Rectangle_235" data-name="Rectangle 235" width="25.85" height="27.81" transform="translate(375.14 85.022)" fill="#fff"/>
        <rect id="Rectangle_236" data-name="Rectangle 236" width="13.32" height="14.33" rx="2.28" transform="translate(381.4 93.379)" fill="#f0f0f0"/>
      </g>
    </g>
    <g id="freepik--Shadow--inject-31" transform="translate(56.11 532.36)">
      <g id="freepik--shadow--inject-31-2" data-name="freepik--shadow--inject-31">
        <ellipse id="Ellipse_43" data-name="Ellipse 43" cx="193.89" cy="11.32" rx="193.89" ry="11.32" fill="#f5f5f5"/>
      </g>
    </g>
    <g id="freepik--Images--inject-31" transform="translate(77.309 249.585)">
      <g id="freepik--photo-3--inject-31" transform="translate(32.361 4.225)">
        <rect id="Rectangle_237" data-name="Rectangle 237" width="215.91" height="211.41" fill="#fd1812"/>
        <rect id="Rectangle_238" data-name="Rectangle 238" width="215.91" height="211.41" opacity="0.7"/>
        <rect id="Rectangle_239" data-name="Rectangle 239" width="204.81" height="204.65" transform="translate(5.56 6.76)" fill="#fff"/>
        <path id="Path_262" data-name="Path 262" d="M325.58,334.8v2.98H216.77l23.52-23.5,32.38-32.4Z" transform="translate(-109.67 -126.37)" fill="#fd1812"/>
        <path id="Path_263" data-name="Path 263" d="M325.58,334.8v2.98H216.77l23.52-23.5,32.38-32.4Z" transform="translate(-109.67 -126.37)" opacity="0.7"/>
        <path id="Path_264" data-name="Path 264" d="M109.67,337.78V317.46l66.9-66.9,87.22,87.22Z" transform="translate(-109.67 -126.37)" fill="#fd1812"/>
        <path id="Path_265" data-name="Path 265" d="M109.67,337.78V317.46l66.9-66.9,87.22,87.22Z" transform="translate(-109.67 -126.37)" opacity="0.7"/>
        <circle id="Ellipse_44" data-name="Ellipse 44" cx="33.06" cy="33.06" r="33.06" transform="translate(105.636 95.197) rotate(-80.78)" fill="#fd1812"/>
        <circle id="Ellipse_45" data-name="Ellipse 45" cx="33.06" cy="33.06" r="33.06" transform="translate(105.636 95.197) rotate(-80.78)" opacity="0.7"/>
      </g>
      <g id="freepik--photo-2--inject-31" transform="translate(75.835)">
        <rect id="Rectangle_240" data-name="Rectangle 240" width="211.41" height="215.91" transform="matrix(0.097, -0.995, 0.995, 0.097, 0, 210.475)" fill="#fd1812"/>
        <rect id="Rectangle_241" data-name="Rectangle 241" width="211.41" height="215.91" transform="matrix(0.097, -0.995, 0.995, 0.097, 0, 210.408)" opacity="0.1"/>
        <rect id="Rectangle_242" data-name="Rectangle 242" width="204.65" height="204.81" transform="matrix(0.097, -0.995, 0.995, 0.097, 5.535, 211.016)" fill="#fff"/>
        <rect id="Rectangle_243" data-name="Rectangle 243" width="1" height="7.18" transform="matrix(0.097, -0.995, 0.995, 0.097, 211.377, 16.196)" fill="#fd1812"/>
        <rect id="Rectangle_244" data-name="Rectangle 244" width="1" height="17.66" transform="translate(188.61 12.507) rotate(-84.29)" fill="#fd1812"/>
        <rect id="Rectangle_245" data-name="Rectangle 245" width="1" height="7.18" transform="matrix(0.097, -0.995, 0.995, 0.097, 211.377, 16.196)" opacity="0.1"/>
        <rect id="Rectangle_246" data-name="Rectangle 246" width="1" height="17.66" transform="translate(188.61 12.507) rotate(-84.29)" opacity="0.1"/>
        <path id="Path_266" data-name="Path 266" d="M368.31,350.63l-.29,2.97L259.73,343.02l25.69-21.1,35.38-29.1Z" transform="translate(-153.144 -122.145)" opacity="0.1"/>
        <path id="Path_267" data-name="Path 267" d="M368.31,350.63l-.29,2.97L259.73,343.02l25.69-21.1,35.38-29.1Z" transform="translate(-153.144 -122.145)" fill="#fd1812"/>
        <path id="Path_268" data-name="Path 268" d="M368.31,350.63l-.29,2.97L259.73,343.02l25.69-21.1,35.38-29.1Z" transform="translate(-153.144 -122.145)" opacity="0.1"/>
        <circle id="Ellipse_46" data-name="Ellipse 46" cx="33.06" cy="33.06" r="33.06" transform="translate(123.776 48.495)" opacity="0.1"/>
        <circle id="Ellipse_47" data-name="Ellipse 47" cx="33.06" cy="33.06" r="33.06" transform="translate(123.776 48.495)" fill="#fd1812"/>
        <circle id="Ellipse_48" data-name="Ellipse 48" cx="33.06" cy="33.06" r="33.06" transform="translate(123.776 48.495)" opacity="0.1"/>
      </g>
      <g id="freepik--photo-1--inject-31" transform="translate(0 27.989)">
        <rect id="Rectangle_247" data-name="Rectangle 247" width="215.91" height="211.41" transform="translate(0 14.084) rotate(-3.74)" fill="#fd1812"/>
        <rect id="Rectangle_248" data-name="Rectangle 248" width="204.81" height="204.65" transform="translate(5.978 20.463) rotate(-3.74)" fill="#fff"/>
        <rect id="Rectangle_249" data-name="Rectangle 249" width="215.91" height="211.41" transform="translate(0 14.084) rotate(-3.74)" fill="#fff" opacity="0.5"/>
        <path id="Path_269" data-name="Path 269" d="M306.33,358.14l.19,2.97L197.95,368.2l21.93-24.98,30.2-34.44Z" transform="translate(-77.309 -150.135)" fill="#fd1812"/>
        <path id="Path_270" data-name="Path 270" d="M306.33,358.14l.19,2.97L197.95,368.2l21.93-24.98,30.2-34.44Z" transform="translate(-77.309 -150.135)" fill="#fff" opacity="0.5"/>
        <path id="Path_271" data-name="Path 271" d="M91.07,375.18l-1.32-20.27,62.4-71.12,92.71,81.35Z" transform="translate(-77.309 -150.135)" fill="#fd1812"/>
        <path id="Path_272" data-name="Path 272" d="M91.07,375.18l-1.32-20.27,62.4-71.12,92.71,81.35Z" transform="translate(-77.309 -150.135)" fill="#fff" opacity="0.5"/>
        <circle id="Ellipse_49" data-name="Ellipse 49" cx="33.06" cy="33.06" r="33.06" transform="translate(114.611 39.385)" fill="#fd1812"/>
        <circle id="Ellipse_50" data-name="Ellipse 50" cx="33.06" cy="33.06" r="33.06" transform="translate(114.611 39.385)" fill="#fff" opacity="0.5"/>
      </g>
    </g>
    <g id="freepik--Character--inject-31" transform="translate(291.69 276.48)">
      <g id="freepik--character--inject-31-2" data-name="freepik--character--inject-31">
        <path id="Path_273" data-name="Path 273" d="M390.63,200.92c.71,1.31,1.3,2.47,1.88,3.73s1.15,2.47,1.7,3.72c1.07,2.5,2.07,5,3,7.65a79.482,79.482,0,0,1,2.32,8l.47,2.06.38,2.09c.14.7.22,1.42.32,2.13l.14,1.08v.71a8.339,8.339,0,0,1,0,1,15.07,15.07,0,0,1-1.3,5.53,34.514,34.514,0,0,1-2.08,4.06,63,63,0,0,1-4.83,6.85,103.721,103.721,0,0,1-11.09,11.77l-4.08-3.66c2.91-4.2,5.8-8.54,8.4-12.84a71.756,71.756,0,0,0,3.49-6.46,23.865,23.865,0,0,0,1.21-3.07,5.86,5.86,0,0,0,.36-2.11h0v-.22l-.19-.86c-.12-.58-.23-1.15-.4-1.73l-.46-1.74-.51-1.75c-.73-2.33-1.54-4.66-2.45-7s-1.87-4.63-2.88-6.92-2.12-4.63-3.14-6.74Z" transform="translate(-291.69 -149.04)" fill="#eec1bb"/>
        <path id="Path_274" data-name="Path 274" d="M402.1,218.41l-13.61,7.19-3.28,1.74s-.77-2.25-1.86-5.52c-.88-2.61-2-5.86-3.06-9.15-.34-1-.68-2.07-1-3.09-.1-.29-.2-.57-.29-.86-2.94-9,5.22-13.05,10.77-11.89C399.27,198.82,402.1,218.41,402.1,218.41Z" transform="translate(-291.69 -149.04)" fill="#fd1812"/>
        <path id="Path_275" data-name="Path 275" d="M402.1,218.41l-13.61,7.19-3.28,1.74s-.77-2.25-1.86-5.52c-.88-2.61-2-5.86-3.06-9.15-.34-1-.68-2.07-1-3.09-.1-.29-.2-.57-.29-.86-2.94-9,5.22-13.05,10.77-11.89C399.27,198.82,402.1,218.41,402.1,218.41Z" transform="translate(-291.69 -149.04)" fill="#fff" opacity="0.7"/>
        <path id="Path_276" data-name="Path 276" d="M388.49,225.6l-3.28,1.74s-.77-2.25-1.86-5.52c-.88-2.61-2-5.86-3.06-9.15-.34-1-.68-2.07-1-3.09l7.5-1.47S387.81,220,388.49,225.6Z" transform="translate(-291.69 -149.04)" fill="#fd1812"/>
        <path id="Path_277" data-name="Path 277" d="M388.49,225.6l-3.28,1.74s-.77-2.25-1.86-5.52c-.88-2.61-2-5.86-3.06-9.15-.34-1-.68-2.07-1-3.09l7.5-1.47S387.81,220,388.49,225.6Z" transform="translate(-291.69 -149.04)" fill="#fff" opacity="0.6"/>
        <path id="Path_278" data-name="Path 278" d="M379.12,256.5l-7,2.33,6.35,6.81s5.53-3.31,4.11-6.44Z" transform="translate(-291.69 -149.04)" fill="#eec1bb"/>
        <path id="Path_279" data-name="Path 279" d="M367.29,265.1l5.5,5.29,5.66-4.75-6.35-6.81Z" transform="translate(-291.69 -149.04)" fill="#eec1bb"/>
        <path id="Path_280" data-name="Path 280" d="M328.95,400.73l-7.26-.54-.68-16.97,7.26.54Z" transform="translate(-291.69 -149.04)" fill="#eec1bb"/>
        <path id="Path_281" data-name="Path 281" d="M375.4,407.21h-7.29l-5.68-16.88h7.29Z" transform="translate(-291.69 -149.04)" fill="#eec1bb"/>
        <path id="Path_282" data-name="Path 282" d="M321.01,383.23l.35,8.75,7.27.54-.35-8.75Z" transform="translate(-291.69 -149.04)" fill="#db9792"/>
        <path id="Path_283" data-name="Path 283" d="M369.72,390.34h-7.29l2.93,8.7h7.29Z" transform="translate(-291.69 -149.04)" fill="#db9792"/>
        <path id="Path_284" data-name="Path 284" d="M375.28,397.35H361.93s-13-44.72-16.27-67.87c-.7-5-.29-11.6.76-18.76,1.79-12.25,5.41-26.16,8.42-36.54,2.68-9.23,4.89-15.68,4.89-15.68l25.09,1.87c-1.36,18.21-19.38,48.11-18.13,72.82C367.84,356,375.28,397.35,375.28,397.35Z" transform="translate(-291.69 -149.04)" fill="#fd1812"/>
        <path id="Path_285" data-name="Path 285" d="M375.28,397.35H361.93s-13-44.72-16.27-67.87c-.7-5-.29-11.6.76-18.76,1.79-12.25,5.41-26.16,8.42-36.54,2.68-9.23,4.89-15.68,4.89-15.68l25.09,1.87c-1.36,18.21-19.38,48.11-18.13,72.82C367.84,356,375.28,397.35,375.28,397.35Z" transform="translate(-291.69 -149.04)" opacity="0.7"/>
        <path id="Path_286" data-name="Path 286" d="M378.93,176.22c-1.56,5.2-3.57,14.82-.21,18.72,0,0-2,5.24-11.84,4.26-10.84-1.08-4.64-5.89-4.64-5.89,6.05-.83,6.34-5.23,5.71-9.46Z" transform="translate(-291.69 -149.04)" fill="#eec1bb"/>
        <path id="Path_287" data-name="Path 287" d="M360.45,168.35c-.06.58-.42,1-.8,1s-.64-.54-.59-1.13.42-1,.8-1S360.51,167.76,360.45,168.35Z" transform="translate(-291.69 -149.04)" fill="#263238"/>
        <path id="Path_288" data-name="Path 288" d="M360.43,168.64a20.6,20.6,0,0,1-3.29,4.72,3.38,3.38,0,0,0,2.74.81Z" transform="translate(-291.69 -149.04)" fill="#d4827d"/>
        <path id="Path_289" data-name="Path 289" d="M362.69,166.42a.34.34,0,0,1-.3-.17,2.74,2.74,0,0,0-2.08-1.36.36.36,0,0,1-.34-.36.31.31,0,0,1,.31-.33h.05a3.4,3.4,0,0,1,2.65,1.69.35.35,0,0,1-.11.48.41.41,0,0,1-.18.05Z" transform="translate(-291.69 -149.04)" fill="#263238"/>
        <path id="Path_290" data-name="Path 290" d="M367.14,406.36H376a.63.63,0,0,1,.62.5l1.44,6.48a1.07,1.07,0,0,1-.83,1.27h-.24c-2.85-.05-4.94-.21-8.54-.21-2.21,0-6.78.23-9.84.23s-3.45-3-2.2-3.3c5.61-1.23,7.73-2.92,9.52-4.54a1.83,1.83,0,0,1,1.21-.43Z" transform="translate(-291.69 -149.04)" fill="#263238"/>
        <path id="Path_291" data-name="Path 291" d="M321.34,398.56l7.94.59a.65.65,0,0,1,.58.55l.95,6.56a1.05,1.05,0,0,1-.88,1.21,1.129,1.129,0,0,1-.26,0c-2.86-.27-7-.74-10.58-1-4.21-.31-7-.46-11.94-.83-3-.22-3.58-3.3-2.32-3.48,5.78-.82,9.58-.5,14.72-3.16A3.38,3.38,0,0,1,321.34,398.56Z" transform="translate(-291.69 -149.04)" fill="#263238"/>
        <path id="Path_292" data-name="Path 292" d="M346.38,199.74c-.66,1.13-1.45,2.42-2.18,3.64s-1.53,2.46-2.32,3.67c-1.57,2.43-3.2,4.81-4.89,7.11s-3.45,4.52-5.3,6.59a45.33,45.33,0,0,1-5.18,5,28.511,28.511,0,0,1-4.69.68,27.39,27.39,0,0,1-6-.36,32.27,32.27,0,0,1-8.9-2.94c-.47-.24-.93-.5-1.38-.76l-1.26-.75-3.81,3.92c.54.62.95,1,1.44,1.52a18.544,18.544,0,0,0,1.47,1.3,31.242,31.242,0,0,0,3.15,2.33,32.259,32.259,0,0,0,7.16,3.42,32.59,32.59,0,0,0,7.94,1.57,34.151,34.151,0,0,0,8.14-.47l.83-.15.95-.62a48.149,48.149,0,0,0,7.74-6.43,79.174,79.174,0,0,0,6.36-7.21c2-2.48,3.78-5.05,5.51-7.66.86-1.33,1.69-2.67,2.5-4s1.58-2.66,2.38-4.16Z" transform="translate(-291.69 -149.04)" fill="#eec1bb"/>
        <path id="Path_293" data-name="Path 293" d="M307.59,224l-5.44-4.76L298,226.42s3.87,4.34,8.42,1.61Z" transform="translate(-291.69 -149.04)" fill="#eec1bb"/>
        <path id="Path_294" data-name="Path 294" d="M294.58,216.12l-2.89,6.57,6.27,3.73,4.19-7.14Z" transform="translate(-291.69 -149.04)" fill="#eec1bb"/>
        <path id="Path_295" data-name="Path 295" d="M380.36,168.3c-1.16,7.14-1.47,11.37-5.46,14.7-6,5-14.55.83-15.55-6.51-.9-6.6,1.14-17.17,8.45-19.33a9.87,9.87,0,0,1,12.56,11.14Z" transform="translate(-291.69 -149.04)" fill="#eec1bb"/>
        <path id="Path_296" data-name="Path 296" d="M388.44,164.54c5.34,3.74-7.37,17.46-11.89,17.31s-13-12.68-10.22-19.35c-2.33-.94-3.08-1.25-4-3.63-1.72-4.31.35-11.5,10.91-9.48-2.62,1.78-.8,3.19,4.17,2.5-2,2.33,1.28,4.05,6.11,3.05C382.67,159.22,393.44,159.83,388.44,164.54Z" transform="translate(-291.69 -149.04)" fill="#263238"/>
        <path id="Path_297" data-name="Path 297" d="M370.31,170.51a6.92,6.92,0,0,1-2.86,4.4c-2,1.35-3.76-.25-3.84-2.54-.07-2.05.88-5.23,3.19-5.66a3.09,3.09,0,0,1,3.56,2.53,3.189,3.189,0,0,1-.05,1.27Z" transform="translate(-291.69 -149.04)" fill="#eec1bb"/>
        <path id="Path_298" data-name="Path 298" d="M361.48,279.44c-.14,12.12-8.66,25.51-15.06,31.28,1.79-12.25,5.41-26.16,8.42-36.54C356.71,273.8,359.92,277.35,361.48,279.44Z" transform="translate(-291.69 -149.04)" opacity="0.4"/>
        <path id="Path_299" data-name="Path 299" d="M364.73,407.64a2.17,2.17,0,0,1-1.4-.38,1,1,0,0,1-.36-.91.56.56,0,0,1,.29-.49c.82-.4,3.16,1,3.43,1.2a.18.18,0,0,1,.07.17.16.16,0,0,1-.13.14,7.637,7.637,0,0,1-1.9.27Zm-1.08-1.51a.45.45,0,0,0-.23,0,.23.23,0,0,0-.11.2.72.72,0,0,0,.24.63,3.49,3.49,0,0,0,2.58.13,7.149,7.149,0,0,0-2.48-1Z" transform="translate(-291.69 -149.04)" fill="#fd1812"/>
        <path id="Path_300" data-name="Path 300" d="M366.59,407.38h-.08c-.75-.41-2.21-2-2.06-2.82a.56.56,0,0,1,.55-.45.9.9,0,0,1,.74.22c.84.69,1,2.79,1,2.88a.21.21,0,0,1-.08.16Zm-1.47-3h-.07c-.23,0-.25.13-.26.17-.09.48.84,1.69,1.59,2.26a4.2,4.2,0,0,0-.86-2.28.57.57,0,0,0-.4-.11Z" transform="translate(-291.69 -149.04)" fill="#fd1812"/>
        <path id="Path_301" data-name="Path 301" d="M318.85,399.63a3.48,3.48,0,0,1-2.36-.6,1,1,0,0,1-.26-.86.54.54,0,0,1,.32-.44c.92-.42,3.73,1.27,4.05,1.47a.18.18,0,0,1,.08.18.19.19,0,0,1-.15.14A13.539,13.539,0,0,1,318.85,399.63ZM316.93,398a.591.591,0,0,0-.23.05.21.21,0,0,0-.13.17.63.63,0,0,0,.17.57c.42.43,1.61.59,3.23.44a8.661,8.661,0,0,0-3.04-1.23Z" transform="translate(-291.69 -149.04)" fill="#fd1812"/>
        <path id="Path_302" data-name="Path 302" d="M320.51,399.52h-.09c-.84-.46-2.46-2.16-2.27-3,.05-.19.2-.42.68-.44a1.33,1.33,0,0,1,.93.37,5,5,0,0,1,.92,2.88.18.18,0,0,1-.08.15Zm-1.64-3.08h0c-.32,0-.34.13-.35.17-.12.48,1,1.81,1.82,2.41a4,4,0,0,0-.79-2.31.92.92,0,0,0-.68-.27Z" transform="translate(-291.69 -149.04)" fill="#fd1812"/>
        <path id="Path_303" data-name="Path 303" d="M346,257.48s-31.48,47.62-32.34,69.84c-.89,23.11,5.15,62.77,5.15,62.77l12.31.92s1.43-37.72,3.66-60.32c2.43-24.63,38-52.08,39.4-71.11Z" transform="translate(-291.69 -149.04)" fill="#fd1812"/>
        <path id="Path_304" data-name="Path 304" d="M346,257.48s-31.48,47.62-32.34,69.84c-.89,23.11,5.15,62.77,5.15,62.77l12.31.92s1.43-37.72,3.66-60.32c2.43-24.63,38-52.08,39.4-71.11Z" transform="translate(-291.69 -149.04)" opacity="0.7"/>
        <path id="Path_305" data-name="Path 305" d="M359.57,397.64h17.45v-4.7l-19.5-.3Z" transform="translate(-291.69 -149.04)" fill="#fd1812"/>
        <path id="Path_306" data-name="Path 306" d="M316.29,390.16l17.09,1.31.36-4.74-19.13-1.71Z" transform="translate(-291.69 -149.04)" fill="#fd1812"/>
        <path id="Path_307" data-name="Path 307" d="M359.57,203.09c-.52,6.94-8.74,20.47-8.74,20.47l-18.61-9.78s6.3-10.13,13.19-16.16S360.14,195.46,359.57,203.09Z" transform="translate(-291.69 -149.04)" fill="#fd1812"/>
        <path id="Path_308" data-name="Path 308" d="M359.57,203.09c-.52,6.94-8.74,20.47-8.74,20.47l-18.61-9.78s6.3-10.13,13.19-16.16S360.14,195.46,359.57,203.09Z" transform="translate(-291.69 -149.04)" fill="#fff" opacity="0.7"/>
        <path id="Path_309" data-name="Path 309" d="M360.13,195.14c.5-1-.22-4.56-.22-4.56s15.47-2.08,21-.11c3,1.06.36,6.41.36,6.41Z" transform="translate(-291.69 -149.04)" fill="#fd1812"/>
        <path id="Path_310" data-name="Path 310" d="M360.13,195.14c.5-1-.22-4.56-.22-4.56s15.47-2.08,21-.11c3,1.06.36,6.41.36,6.41Z" transform="translate(-291.69 -149.04)" opacity="0.7"/>
        <path id="Path_311" data-name="Path 311" d="M384.81,260.37,346,257.48A176,176,0,0,1,344.67,228c.16-3.54.44-6.8.78-9.78,1.8-15.59,5.6-23.51,5.6-23.51a72.93,72.93,0,0,1,11.32-1.19,142.616,142.616,0,0,1,16.52,1.23,89,89,0,0,1,11.77,2.32C382.81,224.75,385.52,254.42,384.81,260.37Z" transform="translate(-291.69 -149.04)" fill="#fd1812"/>
        <path id="Path_312" data-name="Path 312" d="M384.81,260.37,346,257.48A176,176,0,0,1,344.67,228c.16-3.54.44-6.8.78-9.78,1.8-15.59,5.6-23.51,5.6-23.51a72.93,72.93,0,0,1,11.32-1.19,142.616,142.616,0,0,1,16.52,1.23,89,89,0,0,1,11.77,2.32C382.81,224.75,385.52,254.42,384.81,260.37Z" transform="translate(-291.69 -149.04)" fill="#fff" opacity="0.7"/>
      </g>
    </g>
  </g>
</svg>
