<?xml version="1.0" encoding="utf-8"?>
<svg viewBox="1.24 0.658 38.419 31.957" xmlns="http://www.w3.org/2000/svg">
  <g id="judo" transform="matrix(1, 0, 0, 1, 1.240997, 0.660484)">
    <path id="Path_98" data-name="Path 98" d="M37.943,26.946l-1.292,1.561a13.883,13.883,0,0,0-3.116,7.326,3.075,3.075,0,0,1,.95,1.962,10.159,10.159,0,0,1-1.114,4.754c-1.356,3.138-5.491,5.138-5.88,5.35a2.05,2.05,0,0,1-2.3-.094,40.23,40.23,0,0,1-6.363-5.846l-.966-1.1a2.073,2.073,0,0,1-.174-.233l-.005-.005-.966-1.1a36.1,36.1,0,0,0-3.242-3.25l-.011.019c-.8.449-3.534,2.966-3.28,5.283A17.938,17.938,0,0,1,13.53,53.639a2.056,2.056,0,0,1-4.1-.343,13.893,13.893,0,0,0-1.05-6.61,17.987,17.987,0,0,1-3.453,6.542L3.637,54.789A2.055,2.055,0,1,1,.47,52.168l1.292-1.561a13.889,13.889,0,0,0,3.164-7.822l0-.04a3.068,3.068,0,0,1-.768-1.771A10.252,10.252,0,0,1,5.289,36.22c1.243-2.878,4.978-4.889,5.89-5.369q.086-.051.177-.093a2.055,2.055,0,0,1,2.093.207,40.234,40.234,0,0,1,6.363,5.846l.966,1.1a2.07,2.07,0,0,1,.174.233l.005.005.966,1.1A36.118,36.118,0,0,0,25.162,42.5,8.236,8.236,0,0,0,27.724,40.1a3.889,3.889,0,0,0,.64-2.375,17.94,17.94,0,0,1-3.481-12.254,2.056,2.056,0,1,1,4.1.343,13.893,13.893,0,0,0,1.05,6.61,17.987,17.987,0,0,1,3.453-6.541l1.292-1.561a2.055,2.055,0,1,1,3.167,2.621ZM17.924,31A3.163,3.163,0,1,0,14.2,28.516,3.163,3.163,0,0,0,17.924,31Zm2.8,16.776a3.163,3.163,0,1,0,3.722,2.481A3.163,3.163,0,0,0,20.719,47.773Z" transform="translate(0.001 -23.58)" fill="#0e2b89"/>
  </g>
</svg>