<svg xmlns="http://www.w3.org/2000/svg" xmlns:xlink="http://www.w3.org/1999/xlink" width="63" height="63" viewBox="0 0 63 63">
  <defs>
    <filter id="Path_159" x="17.69" y="17.69" width="45.31" height="45.31" filterUnits="userSpaceOnUse">
      <feOffset dx="5" dy="5" input="SourceAlpha"/>
      <feGaussianBlur stdDeviation="5" result="blur"/>
      <feFlood flood-color="#fd1812" flood-opacity="0.251"/>
      <feComposite operator="in" in2="blur"/>
      <feComposite in="SourceGraphic"/>
    </filter>
    <filter id="Path_160" x="0" y="17.69" width="45.31" height="45.31" filterUnits="userSpaceOnUse">
      <feOffset dx="5" dy="5" input="SourceAlpha"/>
      <feGaussianBlur stdDeviation="5" result="blur-2"/>
      <feFlood flood-color="#fd1812" flood-opacity="0.251"/>
      <feComposite operator="in" in2="blur-2"/>
      <feComposite in="SourceGraphic"/>
    </filter>
    <filter id="Path_161" x="17.69" y="0" width="45.31" height="45.31" filterUnits="userSpaceOnUse">
      <feOffset dx="5" dy="5" input="SourceAlpha"/>
      <feGaussianBlur stdDeviation="5" result="blur-3"/>
      <feFlood flood-color="#fd1812" flood-opacity="0.251"/>
      <feComposite operator="in" in2="blur-3"/>
      <feComposite in="SourceGraphic"/>
    </filter>
    <filter id="Path_162" x="0" y="0" width="45.31" height="45.31" filterUnits="userSpaceOnUse">
      <feOffset dx="5" dy="5" input="SourceAlpha"/>
      <feGaussianBlur stdDeviation="5" result="blur-4"/>
      <feFlood flood-color="#fd1812" flood-opacity="0.251"/>
      <feComposite operator="in" in2="blur-4"/>
      <feComposite in="SourceGraphic"/>
    </filter>
  </defs>
  <g id="Solid" transform="translate(-13.999 -14)">
    <g transform="matrix(1, 0, 0, 1, 14, 14)" filter="url(#Path_159)">
      <path id="Path_159-2" data-name="Path 159" d="M286.031,283.533h3.39a1.767,1.767,0,0,0,0-3.533h-7.655A1.767,1.767,0,0,0,280,281.767v7.655a1.767,1.767,0,1,0,3.533,0v-3.39l8.761,8.761a1.767,1.767,0,1,0,2.5-2.5Z" transform="translate(-252.31 -252.31)" fill="#fd1812"/>
    </g>
    <g transform="matrix(1, 0, 0, 1, 14, 14)" filter="url(#Path_160)">
      <path id="Path_160-2" data-name="Path 160" d="M37.543,280H29.888a1.767,1.767,0,0,0,0,3.533h3.39l-8.761,8.761a1.767,1.767,0,0,0,2.5,2.5l8.761-8.761v3.39a1.767,1.767,0,0,0,3.533,0v-7.655A1.767,1.767,0,0,0,37.543,280Z" transform="translate(-14 -252.31)" fill="#fd1812"/>
    </g>
    <g transform="matrix(1, 0, 0, 1, 14, 14)" filter="url(#Path_161)">
      <path id="Path_161-2" data-name="Path 161" d="M281.767,39.31h7.655a1.767,1.767,0,1,0,0-3.533h-3.39l8.761-8.761a1.767,1.767,0,0,0-2.5-2.5l-8.761,8.761v-3.39a1.767,1.767,0,0,0-3.533,0v7.655A1.767,1.767,0,0,0,281.767,39.31Z" transform="translate(-252.31 -14)" fill="#fd1812"/>
    </g>
    <g transform="matrix(1, 0, 0, 1, 14, 14)" filter="url(#Path_162)">
      <path id="Path_162-2" data-name="Path 162" d="M37.544,28.122a1.767,1.767,0,0,0-1.767,1.767v3.39l-8.761-8.761a1.767,1.767,0,0,0-2.5,2.5l8.761,8.761h-3.39a1.767,1.767,0,0,0,0,3.533h7.655a1.767,1.767,0,0,0,1.767-1.767V29.888A1.767,1.767,0,0,0,37.544,28.122Z" transform="translate(-14 -14)" fill="#fd1812"/>
    </g>
  </g>
</svg>
