<svg xmlns="http://www.w3.org/2000/svg" width="35.6" height="35.61" viewBox="0 0 35.6 35.61">
  <g id="Layer_2" data-name="Layer 2" transform="translate(-0.04 0.03)">
    <g id="Capa_1" data-name="Capa 1" transform="translate(0.04 -0.03)">
      <path id="Path_186" data-name="Path 186" d="M34.385,24.35a8.251,8.251,0,0,1-.72,7.383.522.522,0,0,1-.881-.556,7.214,7.214,0,1,0-1.5,1.7.522.522,0,0,1,.667.8,8.244,8.244,0,0,1-8.814,1.093,17.8,17.8,0,1,1,10.552-25.1.522.522,0,0,1-.928.476A16.761,16.761,0,1,0,21.9,34.036a8.4,8.4,0,0,1-1.14-.984A15.555,15.555,0,0,1,5.988,7.7a.522.522,0,1,1,.795.676,14.514,14.514,0,0,0,13.2,23.749,8.205,8.205,0,0,1-1.542-4.748c0-.021,0-5.775,0-5.775a.6.6,0,0,0-.632-.6.626.626,0,0,0-.573.633v6.852a1.654,1.654,0,0,1-.512,1.19,1.631,1.631,0,0,1-1.134.455h-.08a1.658,1.658,0,0,1-1.567-1.677v-13.4l-2.839,1.638a1.646,1.646,0,0,1-1.645-2.851l4.093-2.364a3.338,3.338,0,0,1,1.669-.446h.2a3.332,3.332,0,1,1,4.835,0h.2a3.334,3.334,0,0,1,1.665.446l4.094,2.364a1.646,1.646,0,0,1-1.646,2.851l-2.839-1.638V20.74a8.231,8.231,0,0,1,10.255.268A14.513,14.513,0,0,0,8.443,6.716a.521.521,0,1,1-.677-.793A15.561,15.561,0,0,1,32.853,21.847a8.368,8.368,0,0,1,.894,1.211,16.841,16.841,0,0,0-.06-10.746.522.522,0,0,1,.986-.339,17.865,17.865,0,0,1-.289,12.378Z" transform="translate(-0.04 0.03)" fill="#fd1812"/>
      <path id="Path_187" data-name="Path 187" d="M309.453,312.733l-1.46-.348c-.013-.034-.028-.07-.042-.1l.785-1.276a.522.522,0,0,0-.075-.642l-1.093-1.093a.522.522,0,0,0-.642-.075l-1.277.785-.1-.042-.348-1.46a.522.522,0,0,0-.507-.4H303.15a.522.522,0,0,0-.507.4l-.348,1.46-.1.042-1.275-.786a.521.521,0,0,0-.642.075l-1.093,1.093a.522.522,0,0,0-.075.642l.785,1.276q-.022.051-.042.1l-1.46.348a.521.521,0,0,0-.4.507v1.545a.522.522,0,0,0,.4.507l1.46.348c.013.034.028.07.042.1l-.785,1.276a.522.522,0,0,0,.075.642l1.093,1.093a.522.522,0,0,0,.642.075l1.277-.785.1.042.348,1.46a.522.522,0,0,0,.507.4H304.7a.522.522,0,0,0,.507-.4l.348-1.46.1-.042,1.276.785a.522.522,0,0,0,.642-.075l1.093-1.093a.522.522,0,0,0,.075-.642l-.785-1.277c.015-.033.029-.07.042-.1l1.46-.348a.521.521,0,0,0,.4-.507v-1.545A.522.522,0,0,0,309.453,312.733Zm-5.53,2.3a1.024,1.024,0,1,1,1.021-1.026,1.024,1.024,0,0,1-1.021,1.026Z" transform="translate(-277.271 -286.655)" fill="#fd1812"/>
    </g>
  </g>
</svg>
