<?xml version="1.0" encoding="utf-8"?>
<svg viewBox="438.911 48.991 35.212 35.212" xmlns="http://www.w3.org/2000/svg">
  <defs>
    <filter id="Path_205" x="12.033" y="12.033" width="29.139" height="29.139" filterUnits="userSpaceOnUse">
      <feOffset dx="5" dy="5" input="SourceAlpha"/>
      <feGaussianBlur stdDeviation="3" result="blur"/>
      <feFlood flood-color="#fd1812" flood-opacity="0.251"/>
      <feComposite operator="in" in2="blur"/>
      <feComposite in="SourceGraphic"/>
    </filter>
    <filter id="Path_206" x="0" y="0" width="53.204" height="53.204" filterUnits="userSpaceOnUse">
      <feOffset dx="5" dy="5" input="SourceAlpha"/>
      <feGaussianBlur stdDeviation="3" result="blur-2"/>
      <feFlood flood-color="#fd1812" flood-opacity="0.251"/>
      <feComposite operator="in" in2="blur-2"/>
      <feComposite in="SourceGraphic"/>
    </filter>
    <filter id="Path_207" x="5.845" y="5.844" width="41.515" height="41.515" filterUnits="userSpaceOnUse">
      <feOffset dx="5" dy="5" input="SourceAlpha"/>
      <feGaussianBlur stdDeviation="3" result="blur-3"/>
      <feFlood flood-color="#fd1812" flood-opacity="0.251"/>
      <feComposite operator="in" in2="blur-3"/>
      <feComposite in="SourceGraphic"/>
    </filter>
    <filter id="Path_208" x="16.571" y="0.575" width="36.059" height="36.059" filterUnits="userSpaceOnUse">
      <feOffset dx="5" dy="5" input="SourceAlpha"/>
      <feGaussianBlur stdDeviation="3" result="blur-4"/>
      <feFlood flood-color="#fd1812" flood-opacity="0.251"/>
      <feComposite operator="in" in2="blur-4"/>
      <feComposite in="SourceGraphic"/>
    </filter>
  </defs>
  <g id="goal" transform="matrix(1, 0, 0, 1, 438.918304, 48.99123)">
    <g transform="matrix(1, 0, 0, 1, -4, -4)" filter="url(#Path_205)">
      <path id="Path_205-2" data-name="Path 205" d="M181.656,175.108a5.57,5.57,0,1,0,4.376,4.376l-3.274,3.274a3.094,3.094,0,0,1-4.376-4.376Zm0,0" transform="translate(-158.97 -158.97)" fill="#fd1812"/>
    </g>
    <g transform="matrix(1, 0, 0, 1, -4, -4)" filter="url(#Path_206)">
      <path id="Path_206-2" data-name="Path 206" d="M33.629,10.327,31.41,12.546a3.1,3.1,0,0,1-.743.549,13.819,13.819,0,1,1-8.556-8.558,3.1,3.1,0,0,1,.548-.743l2.219-2.219a17.606,17.606,0,1,0,8.751,8.751Zm0,0" transform="translate(4 4)" fill="#fd1812"/>
    </g>
    <g transform="matrix(1, 0, 0, 1, -4, -4)" filter="url(#Path_207)">
      <path id="Path_207-2" data-name="Path 207" d="M101.138,88l-.188-2.228a11.758,11.758,0,1,0,6.792,6.792l-2.228-.188-1.635,1.635A7.633,7.633,0,1,1,99.5,89.636Zm0,0" transform="translate(-75.16 -75.16)" fill="#fd1812"/>
    </g>
    <g transform="matrix(1, 0, 0, 1, -4, -4)" filter="url(#Path_208)">
      <path id="Path_208-2" data-name="Path 208" d="M248.248,13.854l.3,3.558L241.3,24.658a1.031,1.031,0,1,0,1.458,1.458l7.246-7.246,3.558.3c.029,0,.058,0,.087,0a1.031,1.031,0,0,0,.729-.3l4.376-4.376a1.031,1.031,0,0,0-.642-1.757l-3.168-.267L254.679,9.3a1.031,1.031,0,0,0-1.757-.643l-4.376,4.376a1.031,1.031,0,0,0-.3.816Zm0,0" transform="translate(-220.43 -3.79)" fill="#fd1812"/>
    </g>
  </g>
</svg>