<svg xmlns="http://www.w3.org/2000/svg" xmlns:xlink="http://www.w3.org/1999/xlink" width="51.273" height="53.056" viewBox="0 0 51.273 53.056">
  <defs>
    <filter id="Path_209" x="0" y="0" width="51.273" height="53.056" filterUnits="userSpaceOnUse">
      <feOffset dx="5" dy="5" input="SourceAlpha"/>
      <feGaussianBlur stdDeviation="3" result="blur"/>
      <feFlood flood-color="#fd1812" flood-opacity="0.251"/>
      <feComposite operator="in" in2="blur"/>
      <feComposite in="SourceGraphic"/>
    </filter>
  </defs>
  <g transform="matrix(1, 0, 0, 1, 0, 0)" filter="url(#Path_209)">
    <path id="Path_209-2" data-name="Path 209" d="M29.459,31a3.219,3.219,0,0,1-2.222-.811,14.948,14.948,0,0,0,7.536-12.659A14.976,14.976,0,0,0,27.053,4.759c.271-.855,1.586-1.085,2.406-1.143a2.067,2.067,0,0,0,1.45-.756,1.887,1.887,0,0,0,.421-1.453A1.558,1.558,0,0,0,29.9.037,4.755,4.755,0,0,0,29.272,0a5.6,5.6,0,0,0-5.3,3.347,17.569,17.569,0,0,0-2.867-.724V1.8A1.806,1.806,0,0,0,19.3,0H16.969a1.806,1.806,0,0,0-1.8,1.8v.82a17.569,17.569,0,0,0-2.867.724A5.6,5.6,0,0,0,7,0a4.646,4.646,0,0,0-.628.036,1.558,1.558,0,0,0-1.43,1.37,1.888,1.888,0,0,0,.421,1.452,2.067,2.067,0,0,0,1.45.756c.819.058,2.135.288,2.406,1.143A14.978,14.978,0,0,0,1.5,17.528a14.949,14.949,0,0,0,7.536,12.66A3.22,3.22,0,0,1,6.814,31a2.067,2.067,0,0,0-1.45.756,1.887,1.887,0,0,0-.421,1.453,1.56,1.56,0,0,0,1.434,1.37,4.7,4.7,0,0,0,.609.034,5.639,5.639,0,0,0,5.12-2.97,17.642,17.642,0,0,0,3.061.79v.82a1.806,1.806,0,0,0,1.8,1.8H19.3a1.806,1.806,0,0,0,1.8-1.8v-.82a17.588,17.588,0,0,0,3.061-.79,5.641,5.641,0,0,0,5.12,2.97h0a4.631,4.631,0,0,0,.612-.034,1.558,1.558,0,0,0,1.43-1.37,1.888,1.888,0,0,0-.421-1.453A2.071,2.071,0,0,0,29.459,31ZM15.166,26.987c-4.861-1.149-8.318-5.032-8.318-9.46s3.457-8.31,8.318-9.46Zm-3.658,3.137c-.074-.032-.149-.063-.223-.1a14,14,0,0,1-8.6-12.5A14.006,14.006,0,0,1,11.3,5.019c.085-.038.172-.072.258-.108a16.311,16.311,0,0,1,3.607-1.085V6.861c-5.535,1.192-9.506,5.6-9.506,10.666S9.63,27,15.166,28.194v3.036A16.3,16.3,0,0,1,11.508,30.124Zm9.6-22.056c4.861,1.149,8.318,5.032,8.318,9.46s-3.457,8.31-8.318,9.46Zm0,20.126c5.535-1.192,9.506-5.6,9.506-10.666S26.642,8.053,21.107,6.861V3.825A16.31,16.31,0,0,1,24.714,4.91c.086.037.173.07.258.108a14.008,14.008,0,0,1,8.612,12.509,14,14,0,0,1-8.6,12.5c-.074.033-.149.064-.223.1a16.33,16.33,0,0,1-3.658,1.105V28.194Z" transform="translate(2.5 4)" fill="#fd1812"/>
  </g>
</svg>
