<svg xmlns="http://www.w3.org/2000/svg" width="37.751" height="34.36" viewBox="0 0 37.751 34.36">
  <g id="Group_139" data-name="Group 139" transform="translate(-0.816 -0.356)">
    <path id="Path_158" data-name="Path 158" d="M3.982.1A4.264,4.264,0,0,1,8.067,4.237a3.771,3.771,0,0,1-3.88,3.931A4.264,4.264,0,0,1,.1,4.033,3.771,3.771,0,0,1,3.982.1Z" transform="translate(30.499 19.121)" fill="#fd1812"/>
    <path id="Path_93" data-name="Path 93" d="M30.863,19.6c-.012.024-.027.043-.037.065l-5.161,10.8a1.93,1.93,0,0,1-2.679.835,2.13,2.13,0,0,1-.962-2.76l2.664-5.578-8.848-.227a4.1,4.1,0,0,1-1.263-.225,106.5,106.5,0,0,1-9.9,11.571C2.7,36.1-.546,32.82,1.434,30.8A97.622,97.622,0,0,0,11.8,18.547a2.457,2.457,0,0,1,.264-.313,4.219,4.219,0,0,1,.1-.61,2.666,2.666,0,0,1-.033-.34L11.753,2.49c-.074-2.92,4.4-2.806,4.47.115l.315,12.453,10.137.26a3.984,3.984,0,0,1,1.439.3l1.072-2.461-1.058.3a2.113,2.113,0,0,1-2.545-1.417,1.942,1.942,0,0,1,1.271-2.511l5.322-1.523a1.966,1.966,0,0,1,.586-.073,2.138,2.138,0,0,1,1.9,2.938Z" transform="translate(0 0)" fill="#fd1812"/>
  </g>
</svg>
