<?xml version="1.0" encoding="utf-8"?>
<svg viewBox="0.164 0.401 41.763 28.363" xmlns="http://www.w3.org/2000/svg">
  <g id="building-of-big-houses-style" transform="matrix(0.994358, 0, 0, 0.989407, 0.164456, -4.624451)" style="">
    <g id="Group_193" data-name="Group 193" transform="translate(0 5.079)">
      <path id="Path_146" data-name="Path 146" d="M17.028,12.5,22.286,6.28,29,14.458l3.973.467,3.59-5.341,4.305,7.245H42L37,8.41l-10.272,1.7L22.5,5.079,4,10.354,0,14.933v.95Z" transform="translate(0 -5.079)" fill="#0e2b89"/>
      <path id="Path_147" data-name="Path 147" d="M36.178,9.921l-3.364,5.007L28.42,14.41l-6.5-7.92-5.031,5.948L1.154,15.566V31.49l15.625,1.815L27.1,32.252v0l1.739-.126V23.11l4.192.126v8.592l2.407-.173h0l4.7-.53V16.6ZM11.5,15.29l3.008-.492v2.234l-3.008.387Zm0,3.818,3.008-.3v2.234l-3.008.2ZM6.919,16.049l2.565-.419V17.69l-2.565.329Zm0,3.535,2.565-.261v2.059l-2.565.171ZM2.98,16.7,5.2,16.34v1.91l-2.216.285V16.7Zm0,3.286L5.2,19.765v1.91L2.98,21.82V19.988Zm-.02,3.246,2.213-.087v1.91l-2.213.01ZM5.215,28.5,3,28.375V26.541l2.216.051Zm1.68-5.435,2.563-.1v2.058l-2.563.013Zm2.613,5.671-2.567-.147V26.622l2.567.059Zm1.965-5.863,3-.121v2.231l-3,.017Zm3.062,6.142-3.01-.173v-2.13l3.01.07ZM24.577,15.562l2.685.445V18.09l-2.685-.347ZM19.6,14.771l3.145.52v2.248l-3.145-.4V14.771Zm-.038,3.952,3.149.326V21.3l-3.149-.207Zm3.178,10.161-3.146.185V26.7l3.146-.07Zm.033-3.766-3.143-.01V22.743l3.143.127Zm.68-12.475-2.277-.487V9.283l2.277.591Zm1.092,6.566,2.687.28v2.082l-2.687-.18V19.209Zm2.709,9.379-2.685.156V26.562l2.685-.056Zm.028-3.482L24.6,25.1V22.915l2.681.11Zm9.908-7.468,1.673.278v1.652l-1.673-.217Zm-3.017-.476,1.894.314v1.756l-1.894-.244Zm-.021,3.052,1.9.2v1.756l-1.9-.129Zm1.912,7.871-1.9.11V26.368l1.9-.041Zm.022-2.936-1.894-.008V23.316l1.893.077v1.755Zm.747-10.018-1.34-.294V12.643l1.34.354Zm.337,5.373,1.675.175v1.654l-1.675-.113Zm1.691,7.4-1.675.1V26.281l1.675-.034V27.9Zm.016-2.764-1.671-.008V23.415l1.671.067Z" transform="translate(0.361 -4.638)" fill="#0e2b89"/>
    </g>
  </g>
</svg>