<?xml version="1.0" encoding="utf-8"?>
<svg viewBox="0.726 0.783 40.769 27.542" xmlns="http://www.w3.org/2000/svg">
  <g id="Group_153" data-name="Group 153" transform="matrix(0.792794, 0, 0, 0.792794, 0.725621, 0.783842)" style="">
    <g id="Group_151" data-name="Group 151" transform="translate(14.588)">
      <path id="Path_99" data-name="Path 99" d="M210.011,86.757a3.918,3.918,0,1,0-3.918-3.917A3.918,3.918,0,0,0,210.011,86.757Z" transform="translate(-198.896 -78.922)" fill="#0e2b89"/>
      <path id="Path_100" data-name="Path 100" d="M156.693,166.72c.266-2.237.612-9.241-5.208-11.169-.117-.039-1.035-.372-1.39-.458l-.965.993-.956-.993-.01,0c-.364.088-1.278.421-1.383.457-5.852,2.046-5.487,8.953-5.211,11.169H138v2.617h1.25v12.345h2.43V169.337H144.2a1.821,1.821,0,0,0-.232,1.108l1.158,9.608a1.823,1.823,0,0,0,1.81,1.622c.066,0,.134,0,.2-.01a1.824,1.824,0,0,0,1.612-2.013l-1.008-8.244,1.385-.566,1.34.558-1,8.261a1.822,1.822,0,0,0,1.615,2.009,1.726,1.726,0,0,0,.2.012,1.824,1.824,0,0,0,1.811-1.624l1.149-9.615a1.821,1.821,0,0,0-.232-1.1h2.549v12.344h2.429V169.337h1.268V166.72Zm-11.584,0h-.466a12.4,12.4,0,0,1,.466-5.875Zm4.024-2.882h-.017l-.95-1.294.95-6.315h.017l.94,6.315Zm4.488,2.882h-.492v-5.9A12.14,12.14,0,0,1,153.621,166.72Z" transform="translate(-138.004 -147.041)" fill="#0e2b89"/>
    </g>
    <g id="Group_152" data-name="Group 152" transform="translate(0 2.184)">
      <circle id="Ellipse_33" data-name="Ellipse 33" cx="3.753" cy="3.753" r="3.753" transform="translate(3.879)" fill="#0e2b89"/>
      <path id="Path_101" data-name="Path 101" d="M44.909,179.294c-4.473.331-5.056-1.232-6.146-4.153A3.469,3.469,0,0,0,36.32,173.1a3.008,3.008,0,0,0-.814-.11,5.5,5.5,0,0,0-.853.1h-.011a3.185,3.185,0,0,0-2.611,2.878l-.008,8.283a2.633,2.633,0,0,0,2.886,2.761l2.314,0a2.153,2.153,0,0,1,2.233,2.55c-.161,1.882-.407,3.985-.6,6.239a1.823,1.823,0,0,0,1.658,1.974c.054,0,.107.007.16.007a1.822,1.822,0,0,0,1.813-1.663c.861-9.85.476-10.453.211-11.074-.287-.541-.853-1.29-3.785-1.495l0-2.43a7.022,7.022,0,0,0,4.465,1.146c.533,0,1.112-.024,1.745-.069a1.457,1.457,0,0,0-.215-2.907Z" transform="translate(-28.638 -165.232)" fill="#0e2b89"/>
      <path id="Path_102" data-name="Path 102" d="M8.747,209.482H6.26A3.114,3.114,0,0,1,2.8,206v-7.319a1.4,1.4,0,0,0-2.8,0v12.2A1.4,1.4,0,0,0,.561,212v7.377H2.243v-7.089H7.292v7.089H8.974v-7.113a1.4,1.4,0,0,0-.227-2.782Z" transform="translate(0 -186.957)" fill="#0e2b89"/>
      <circle id="Ellipse_34" data-name="Ellipse 34" cx="3.753" cy="3.753" r="3.753" transform="translate(40.037)" fill="#0e2b89"/>
      <path id="Path_103" data-name="Path 103" d="M324.768,189.566a2.153,2.153,0,0,1,2.233-2.55l2.315,0a2.633,2.633,0,0,0,2.886-2.761l-.008-8.283a3.185,3.185,0,0,0-2.611-2.878h-.011a5.5,5.5,0,0,0-.853-.1,3.008,3.008,0,0,0-.814.11,3.468,3.468,0,0,0-2.443,2.039c-1.09,2.92-1.673,4.484-6.146,4.153a1.457,1.457,0,0,0-.215,2.907c.633.046,1.212.069,1.745.069a7.022,7.022,0,0,0,4.465-1.146l0,2.43c-2.932.2-3.5.954-3.785,1.495-.265.621-.65,1.223.211,11.074a1.822,1.822,0,0,0,1.813,1.663c.053,0,.106,0,.16-.007a1.823,1.823,0,0,0,1.658-1.974C325.176,193.551,324.929,191.448,324.768,189.566Z" transform="translate(-284.164 -165.232)" fill="#0e2b89"/>
      <path id="Path_104" data-name="Path 104" d="M399.212,197.285a1.4,1.4,0,0,0-1.4,1.4v7.319a3.114,3.114,0,0,1-3.455,3.477h-2.487a1.4,1.4,0,0,0-.227,2.782v7.113h1.682v-7.089h5.049v7.089h1.682V212a1.4,1.4,0,0,0,.561-1.115v-12.2A1.4,1.4,0,0,0,399.212,197.285Z" transform="translate(-349.192 -186.957)" fill="#0e2b89"/>
    </g>
  </g>
</svg>