<svg xmlns="http://www.w3.org/2000/svg" width="500" height="500" viewBox="0 0 500 500">
  <g id="Video_files-rafiki" data-name="Video files-rafiki" transform="translate(0 -58.73)">
    <g id="freepik--background-complete--inject-57" transform="translate(0 58.73)">
      <path id="Path_1043" data-name="Path 1043" d="M238.4,341.53H45.31a5.72,5.72,0,0,1-5.71-5.71V64.39a5.72,5.72,0,0,1,5.71-5.66H238.4a5.71,5.71,0,0,1,5.7,5.71h0V335.82A5.71,5.71,0,0,1,238.4,341.53ZM45.31,58.93a5.47,5.47,0,0,0-5.46,5.46V335.82a5.47,5.47,0,0,0,5.46,5.46H238.4a5.46,5.46,0,0,0,5.45-5.46V64.39a5.46,5.46,0,0,0-5.45-5.46Z" transform="translate(0 -58.73)" fill="#e6e6e6"/>
      <path id="Path_1044" data-name="Path 1044" d="M454.7,341.53H261.6a5.71,5.71,0,0,1-5.7-5.71V64.39a5.71,5.71,0,0,1,5.7-5.66H454.7a5.71,5.71,0,0,1,5.7,5.66V335.82A5.71,5.71,0,0,1,454.7,341.53ZM261.6,58.93a5.46,5.46,0,0,0-5.45,5.46V335.82a5.46,5.46,0,0,0,5.45,5.46H454.7a5.48,5.48,0,0,0,5.47-5.46V64.39a5.48,5.48,0,0,0-5.47-5.46Z" transform="translate(0 -58.73)" fill="#e6e6e6"/>
      <rect id="Rectangle_332" data-name="Rectangle 332" width="41.21" height="0.25" transform="translate(53.79 470.82)" fill="#e0e0e0"/>
      <rect id="Rectangle_333" data-name="Rectangle 333" width="41.33" height="0.25" transform="translate(137.67 468.82)" fill="#e0e0e0"/>
      <rect id="Rectangle_334" data-name="Rectangle 334" width="10" height="0.25" transform="translate(222.78 468.82)" fill="#e0e0e0"/>
      <rect id="Rectangle_335" data-name="Rectangle 335" width="46.25" height="0.25" transform="translate(86.58 477.36)" fill="#e0e0e0"/>
      <rect id="Rectangle_336" data-name="Rectangle 336" width="21.6" height="0.25" transform="translate(271.2 470.69)" fill="#e0e0e0"/>
      <rect id="Rectangle_337" data-name="Rectangle 337" width="27.93" height="0.25" transform="translate(301.7 470.69)" fill="#e0e0e0"/>
      <rect id="Rectangle_338" data-name="Rectangle 338" width="62.44" height="0.25" transform="translate(401.89 474.92)" fill="#e0e0e0"/>
      <rect id="Rectangle_339" data-name="Rectangle 339" width="500" height="0.25" transform="translate(0 461.01)" fill="#e0e0e0"/>
      <rect id="Rectangle_340" data-name="Rectangle 340" width="1.8" height="140.37" transform="translate(81.49 41.59)" fill="#e0e0e0"/>
      <rect id="Rectangle_341" data-name="Rectangle 341" width="1.8" height="140.37" transform="translate(193.54 41.59)" fill="#e0e0e0"/>
      <path id="Path_1045" data-name="Path 1045" d="M202.39,109.15H74.44l-2.7-6.3H205.09Z" transform="translate(0 -58.73)" fill="#ebebeb"/>
      <path id="Path_1046" data-name="Path 1046" d="M202.39,117.8H74.44l-2.7-6.3H205.09Z" transform="translate(0 -58.73)" fill="#ebebeb"/>
      <path id="Path_1047" data-name="Path 1047" d="M202.39,126.45H74.44l-2.7-6.3H205.09Z" transform="translate(0 -58.73)" fill="#ebebeb"/>
      <path id="Path_1048" data-name="Path 1048" d="M202.39,135.1H74.44l-2.7-6.3H205.09Z" transform="translate(0 -29.915)" fill="#ebebeb"/>
      <path id="Path_1049" data-name="Path 1049" d="M202.39,143.75H74.44l-2.7-6.3H205.09Z" transform="translate(0 -26.358)" fill="#ebebeb"/>
      <path id="Path_1050" data-name="Path 1050" d="M202.39,152.4H74.44l-2.7-6.3H205.09Z" transform="translate(0 -22.8)" fill="#ebebeb"/>
      <path id="Path_1051" data-name="Path 1051" d="M202.39,161.05H74.44l-2.7-6.3H205.09Z" transform="translate(0 -19.243)" fill="#ebebeb"/>
      <path id="Path_1052" data-name="Path 1052" d="M202.39,169.7H74.44l-2.7-6.3H205.09Z" transform="translate(0 -15.686)" fill="#ebebeb"/>
      <path id="Path_1053" data-name="Path 1053" d="M202.39,178.34H74.44l-2.7-6.3H205.09Z" transform="translate(0 -12.133)" fill="#ebebeb"/>
      <path id="Path_1054" data-name="Path 1054" d="M202.39,186.99H74.44l-2.7-6.3H205.09Z" transform="translate(0 -8.576)" fill="#ebebeb"/>
      <path id="Path_1055" data-name="Path 1055" d="M202.39,195.64H74.44l-2.7-6.3H205.09Z" transform="translate(0 -5.019)" fill="#ebebeb"/>
      <path id="Path_1056" data-name="Path 1056" d="M202.39,204.29H74.44l-2.7-6.3H205.09Z" transform="translate(0 -1.461)" fill="#ebebeb"/>
      <path id="Path_1057" data-name="Path 1057" d="M202.39,212.94H74.44l-2.7-6.3H205.09Z" transform="translate(0 2.096)" fill="#ebebeb"/>
      <path id="Path_1058" data-name="Path 1058" d="M202.39,221.59H74.44l-2.7-6.3H205.09Z" transform="translate(0 5.653)" fill="#ebebeb"/>
      <path id="Path_1059" data-name="Path 1059" d="M202.39,230.24H74.44l-2.7-6.3H205.09Z" transform="translate(0 9.21)" fill="#ebebeb"/>
      <path id="Path_1060" data-name="Path 1060" d="M202.39,238.89H74.44l-2.7-6.3H205.09Z" transform="translate(0 12.767)" fill="#ebebeb"/>
      <rect id="Rectangle_342" data-name="Rectangle 342" width="133.35" height="3.6" transform="translate(71.74 253.654)" fill="#e0e0e0"/>
      <rect id="Rectangle_343" data-name="Rectangle 343" width="142.65" height="8.4" transform="translate(67.09 36.23)" fill="#e0e0e0"/>
      <path id="Path_1061" data-name="Path 1061" d="M68.56,179.52h0a1.45,1.45,0,0,1-1.45-1.45v-49a1.45,1.45,0,0,1,1.45-1.45h0A1.45,1.45,0,0,1,70,129.07v49a1.45,1.45,0,0,1-1.44,1.45Z" transform="translate(0 -25.92)" fill="#e0e0e0"/>
      <rect id="Rectangle_344" data-name="Rectangle 344" width="1.05" height="29.1" transform="translate(68.03 42.95)" fill="#e0e0e0"/>
      <rect id="Rectangle_345" data-name="Rectangle 345" width="75.81" height="81.59" transform="translate(362.05 369.07)" fill="#e6e6e6"/>
      <rect id="Rectangle_346" data-name="Rectangle 346" width="9.53" height="98.25" transform="translate(439.91 363)" fill="#e6e6e6"/>
      <rect id="Rectangle_347" data-name="Rectangle 347" width="6.21" height="30.49" transform="translate(374.12 343.748)" fill="#fafafa"/>
      <rect id="Rectangle_348" data-name="Rectangle 348" width="6.21" height="30.49" transform="translate(399.88 343.748)" fill="#f5f5f5"/>
      <rect id="Rectangle_349" data-name="Rectangle 349" width="6.21" height="28.35" transform="translate(380.33 346.105)" fill="#f5f5f5"/>
      <rect id="Rectangle_350" data-name="Rectangle 350" width="6.21" height="28.35" transform="translate(393.66 346.105)" fill="#fafafa"/>
      <rect id="Rectangle_351" data-name="Rectangle 351" width="4.01" height="30.49" transform="translate(389.65 343.748)" fill="#ebebeb"/>
      <rect id="Rectangle_352" data-name="Rectangle 352" width="3.11" height="28.35" transform="translate(386.55 346.105)" fill="#fafafa"/>
      <rect id="Rectangle_353" data-name="Rectangle 353" width="6.21" height="30.49" transform="translate(406.09 343.748)" fill="#ebebeb"/>
      <rect id="Rectangle_354" data-name="Rectangle 354" width="6.21" height="28.35" transform="translate(412.3 346.105)" fill="#e6e6e6"/>
      <rect id="Rectangle_355" data-name="Rectangle 355" width="6.21" height="28.35" transform="translate(425.63 346.105)" fill="#e6e6e6"/>
      <rect id="Rectangle_356" data-name="Rectangle 356" width="4.01" height="30.49" transform="translate(421.62 343.748)" fill="#fafafa"/>
      <rect id="Rectangle_357" data-name="Rectangle 357" width="3.11" height="28.35" transform="translate(418.51 346.105)" fill="#ebebeb"/>
      <rect id="Rectangle_358" data-name="Rectangle 358" width="3.11" height="29.77" transform="translate(431.84 344.541)" fill="#fafafa"/>
      <rect id="Rectangle_359" data-name="Rectangle 359" width="6.21" height="30.49" transform="translate(434.94 446.86) rotate(180)" fill="#fafafa"/>
      <rect id="Rectangle_360" data-name="Rectangle 360" width="6.21" height="30.49" transform="translate(409.19 446.86) rotate(180)" fill="#fafafa"/>
      <rect id="Rectangle_361" data-name="Rectangle 361" width="6.21" height="28.35" transform="translate(428.74 446.85) rotate(180)" fill="#f0f0f0"/>
      <rect id="Rectangle_362" data-name="Rectangle 362" width="6.21" height="28.35" transform="translate(415.41 446.85) rotate(180)" fill="#ebebeb"/>
      <rect id="Rectangle_363" data-name="Rectangle 363" width="4.01" height="30.49" transform="translate(419.42 446.86) rotate(180)" fill="#fafafa"/>
      <rect id="Rectangle_364" data-name="Rectangle 364" width="3.11" height="28.35" transform="translate(422.52 446.85) rotate(180)" fill="#f5f5f5"/>
      <rect id="Rectangle_365" data-name="Rectangle 365" width="6.21" height="30.49" transform="translate(402.98 446.86) rotate(180)" fill="#ebebeb"/>
      <rect id="Rectangle_366" data-name="Rectangle 366" width="6.21" height="28.35" transform="translate(396.77 446.85) rotate(180)" fill="#f5f5f5"/>
      <rect id="Rectangle_367" data-name="Rectangle 367" width="6.21" height="28.35" transform="translate(383.44 446.85) rotate(180)" fill="#e6e6e6"/>
      <rect id="Rectangle_368" data-name="Rectangle 368" width="4.01" height="30.49" transform="translate(387.45 446.86) rotate(180)" fill="#fafafa"/>
      <rect id="Rectangle_369" data-name="Rectangle 369" width="4.01" height="30.49" transform="translate(374.12 446.86) rotate(180)" fill="#fafafa"/>
      <rect id="Rectangle_370" data-name="Rectangle 370" width="3.11" height="28.35" transform="translate(390.56 446.85) rotate(180)" fill="#ebebeb"/>
      <rect id="Rectangle_371" data-name="Rectangle 371" width="3.11" height="29.77" transform="translate(377.23 446.85) rotate(180)" fill="#f0f0f0"/>
      <path id="Path_1062" data-name="Path 1062" d="M437.48,284.39H359.65v92.75h75.29v5.51H440V284.39Zm-2.54,83.86H364.45V332.49h70.49Zm0-40.84H364.45V293.29h70.49Z" transform="translate(0 78.61)" fill="#f0f0f0"/>
      <rect id="Rectangle_372" data-name="Rectangle 372" width="75.81" height="81.59" transform="translate(361.94 450.67) rotate(180)" fill="#e6e6e6"/>
      <rect id="Rectangle_373" data-name="Rectangle 373" width="9.53" height="6.5" transform="translate(298.57 461.26) rotate(180)" fill="#e6e6e6"/>
      <rect id="Rectangle_374" data-name="Rectangle 374" width="6.21" height="30.49" transform="translate(359.37 374.238) rotate(180)" fill="#fafafa"/>
      <rect id="Rectangle_375" data-name="Rectangle 375" width="6.21" height="30.49" transform="translate(333.63 374.238) rotate(180)" fill="#f5f5f5"/>
      <rect id="Rectangle_376" data-name="Rectangle 376" width="6.21" height="28.35" transform="translate(353.17 374.455) rotate(180)" fill="#f5f5f5"/>
      <rect id="Rectangle_377" data-name="Rectangle 377" width="6.21" height="28.35" transform="translate(339.84 374.455) rotate(180)" fill="#fafafa"/>
      <rect id="Rectangle_378" data-name="Rectangle 378" width="4.01" height="30.49" transform="translate(343.85 374.238) rotate(180)" fill="#ebebeb"/>
      <rect id="Rectangle_379" data-name="Rectangle 379" width="3.11" height="28.35" transform="translate(346.95 374.455) rotate(180)" fill="#fafafa"/>
      <rect id="Rectangle_380" data-name="Rectangle 380" width="6.21" height="30.49" transform="translate(331.5 374.238) rotate(180)" fill="#ebebeb"/>
      <rect id="Rectangle_381" data-name="Rectangle 381" width="6.21" height="28.35" transform="translate(325.3 374.455) rotate(180)" fill="#e6e6e6"/>
      <rect id="Rectangle_382" data-name="Rectangle 382" width="6.21" height="28.35" transform="translate(311.97 374.455) rotate(180)" fill="#e6e6e6"/>
      <rect id="Rectangle_383" data-name="Rectangle 383" width="4.01" height="30.49" transform="translate(315.98 374.238) rotate(180)" fill="#fafafa"/>
      <rect id="Rectangle_384" data-name="Rectangle 384" width="3.11" height="28.35" transform="translate(319.08 374.455) rotate(180)" fill="#ebebeb"/>
      <rect id="Rectangle_385" data-name="Rectangle 385" width="3.11" height="29.77" transform="translate(305.75 374.311) rotate(180)" fill="#f5f5f5"/>
      <rect id="Rectangle_386" data-name="Rectangle 386" width="6.21" height="30.49" transform="translate(299.73 416.36)" fill="#fafafa"/>
      <rect id="Rectangle_387" data-name="Rectangle 387" width="6.21" height="30.49" transform="translate(325.48 416.36)" fill="#fafafa"/>
      <rect id="Rectangle_388" data-name="Rectangle 388" width="6.21" height="28.35" transform="translate(305.94 418.51)" fill="#f5f5f5"/>
      <rect id="Rectangle_389" data-name="Rectangle 389" width="6.21" height="28.35" transform="translate(319.27 418.51)" fill="#ebebeb"/>
      <rect id="Rectangle_390" data-name="Rectangle 390" width="4.01" height="30.49" transform="translate(315.26 416.36)" fill="#fafafa"/>
      <rect id="Rectangle_391" data-name="Rectangle 391" width="3.11" height="28.35" transform="translate(312.15 418.51)" fill="#f5f5f5"/>
      <rect id="Rectangle_392" data-name="Rectangle 392" width="6.21" height="30.49" transform="translate(327.6 416.36)" fill="#ebebeb"/>
      <rect id="Rectangle_393" data-name="Rectangle 393" width="6.21" height="28.35" transform="translate(333.81 418.51)" fill="#f5f5f5"/>
      <rect id="Rectangle_394" data-name="Rectangle 394" width="6.21" height="28.35" transform="translate(347.14 418.51)" fill="#e6e6e6"/>
      <rect id="Rectangle_395" data-name="Rectangle 395" width="4.01" height="30.49" transform="translate(343.13 416.36)" fill="#fafafa"/>
      <rect id="Rectangle_396" data-name="Rectangle 396" width="4.01" height="30.49" transform="translate(355.64 416.36)" fill="#fafafa"/>
      <rect id="Rectangle_397" data-name="Rectangle 397" width="3.11" height="28.35" transform="translate(340.02 418.51)" fill="#ebebeb"/>
      <rect id="Rectangle_398" data-name="Rectangle 398" width="3.11" height="29.77" transform="translate(353.35 417.09)" fill="#ebebeb"/>
      <path id="Path_1063" data-name="Path 1063" d="M284,284.39v98.26h5.08v-5.51h75.28V284.39Zm5.08,48.1h70.49v35.76H289.05Zm0-39.2h70.49v34.12H289.05Z" transform="translate(0 78.61)" fill="#f0f0f0"/>
      <path id="Path_1064" data-name="Path 1064" d="M93.65,350.14s-7.27-34.39,6-53-12-.22-14.88,17.22c0,0-4.35-31.18,8.51-53.12S82.06,257.29,80,279.9c0,0-3.94-27.82,2-43.46s-4.37-5.58-8.32,4.22,1.23,34.07,1.23,34.07-10.31-44.87-20.07-41.3,14.59,33,18,48.27c0,0-11.51-20.59-20.24-16.3s13.53,6.41,23.71,37.1l3.58,14.39S69.25,296.58,62.33,303s20.53,17.47,26.91,48.25Z" transform="translate(0 78.61)" fill="#ebebeb"/>
      <path id="Path_1065" data-name="Path 1065" d="M68.34,360.65h50v11a11,11,0,0,1-11,11h-28a11,11,0,0,1-11-11Z" transform="translate(0 78.61)" fill="#ebebeb"/>
      <rect id="Rectangle_399" data-name="Rectangle 399" width="63.04" height="19.7" rx="4.21" transform="translate(61.8 426.56)" fill="#f5f5f5"/>
      <path id="Path_1066" data-name="Path 1066" d="M92.23,352.12s-1.53-43.36-23-61.73,14.28-3.82,23,16.2c0,0-4.08-38.65-26-61.09s12.24-8,21.43,18.43c0,0-3.58-34.5-15.31-51.47s3.57-8,11.22,2.58,8.68,41.17,8.68,41.17-1-56.82,11.73-55.45-7.65,43.84-7.14,63.17c0,0,7.65-28.09,19.39-25.56s-14.29,11.72-17.35,51.51v18.3s6.63-27.48,16.84-21.87-19.39,27-17.86,65.81Z" transform="translate(0 78.61)" fill="#f5f5f5"/>
      <rect id="Rectangle_400" data-name="Rectangle 400" width="59.5" height="88.69" transform="translate(367.02 37.22)" fill="#ebebeb"/>
      <rect id="Rectangle_401" data-name="Rectangle 401" width="51.29" height="76.45" transform="translate(371.13 43.34)" fill="#f5f5f5"/>
      <circle id="Ellipse_53" data-name="Ellipse 53" cx="10.29" cy="10.29" r="10.29" transform="translate(386.629 101.042) rotate(-76.72)" fill="#e0e0e0"/>
      <path id="Path_1067" data-name="Path 1067" d="M388.73,167.56l15.05-18,5.53,18Z" transform="translate(0 -20.021)" fill="#ebebeb"/>
      <path id="Path_1068" data-name="Path 1068" d="M381.48,114.77c-7.2,11.72-2,26.28,6.19,35.85,1.26,1.47,3.37-.66,2.12-2.12-7.3-8.54-12.17-21.7-5.72-32.22C385.07,114.63,382.49,113.12,381.48,114.77Z" transform="translate(0 -33.67)" fill="#ebebeb"/>
      <path id="Path_1069" data-name="Path 1069" d="M411.78,106.93l-5.5,5.63,5.5,4.71,5-5.17Z" transform="translate(0 -58.73)" fill="#ebebeb"/>
      <path id="Path_1070" data-name="Path 1070" d="M411.03,270.01H384.67l6.57-10.5h15.87v3H392.9l-2.81,4.5h20.94Z" transform="translate(0 24.889)" fill="#e0e0e0"/>
      <rect id="Rectangle_402" data-name="Rectangle 402" width="3" height="6.04" transform="matrix(0.988, -0.152, 0.152, 0.988, 401.514, 285.263)" fill="#e0e0e0"/>
      <rect id="Rectangle_403" data-name="Rectangle 403" width="7.33" height="3" transform="matrix(0.476, -0.879, 0.879, 0.476, 409.365, 293.038)" fill="#ebebeb"/>
      <path id="Path_1071" data-name="Path 1071" d="M428.74,264.22l-16.18.5a2,2,0,0,1-2.16-1.8v-1a2,2,0,0,1,2.16-1.79l16.18.5a1.94,1.94,0,0,1,2,1.79h0a1.94,1.94,0,0,1-2,1.8Z" transform="translate(0 23.671)" fill="#e0e0e0"/>
      <path id="Path_1072" data-name="Path 1072" d="M378.5,279.79l7.93-4.1v-2.33l-7.93-4.1Z" transform="translate(0 28.958)" fill="#e6e6e6"/>
      <rect id="Rectangle_404" data-name="Rectangle 404" width="1.1" height="10.53" transform="translate(377.4 298.218)" fill="#e0e0e0"/>
      <path id="Path_1073" data-name="Path 1073" d="M420.75,282.77l-12.41-6.42V272.7l12.41-6.42Z" transform="translate(0 29.308)" fill="#e6e6e6"/>
      <rect id="Rectangle_405" data-name="Rectangle 405" width="1.72" height="16.5" transform="translate(420.75 295.591)" fill="#e0e0e0"/>
      <path id="Path_1074" data-name="Path 1074" d="M412.45,284.2H389.87a8,8,0,0,1-8-8v-2a8,8,0,0,1,8-8h22.58Z" transform="translate(0 29.686)" fill="#ebebeb"/>
    </g>
    <g id="freepik--Shadows--inject-57" transform="translate(56.11 536.09)">
      <g id="freepik--Shadow--inject-214--inject-57">
        <ellipse id="freepik--path--inject-214--inject-57" cx="193.89" cy="11.32" rx="193.89" ry="11.32" fill="#f5f5f5"/>
      </g>
    </g>
    <g id="freepik--Desk--inject-57" transform="translate(130.272 417.04)">
      <path id="Path_1075" data-name="Path 1075" d="M296.51,290.69h-6.24L280.28,409a2.27,2.27,0,0,0,2.26,2.46h0a2.27,2.27,0,0,0,2.25-2Z" transform="translate(-130.272 -279.7)" fill="#263238"/>
      <path id="Path_1076" data-name="Path 1076" d="M296.51,290.69h-6.24L280.28,409a2.27,2.27,0,0,0,2.26,2.46h0a2.27,2.27,0,0,0,2.25-2Z" transform="translate(-130.272 -279.7)" fill="#fff" opacity="0.1"/>
      <path id="Path_1077" data-name="Path 1077" d="M146.53,289.86h-6.25l-10,119.19a2.26,2.26,0,0,0,2.26,2.45h0a2.27,2.27,0,0,0,2.25-2Z" transform="translate(-130.272 -279.7)" fill="#263238"/>
      <path id="Path_1078" data-name="Path 1078" d="M146.53,289.86h-6.25l-10,119.19a2.26,2.26,0,0,0,2.26,2.45h0a2.27,2.27,0,0,0,2.25-2Z" transform="translate(-130.272 -279.7)" fill="#fff" opacity="0.1"/>
      <path id="Path_1079" data-name="Path 1079" d="M174.21,289.86h6.24l.18,119.55a2.27,2.27,0,0,1-2.27,2.27h0a2.28,2.28,0,0,1-2.27-2.24Z" transform="translate(-130.272 -279.7)" fill="#263238"/>
      <path id="Path_1080" data-name="Path 1080" d="M174.21,289.86h6.24l.18,119.55a2.27,2.27,0,0,1-2.27,2.27h0a2.28,2.28,0,0,1-2.27-2.24Z" transform="translate(-130.272 -279.7)" fill="#fff" opacity="0.2"/>
      <path id="Path_1081" data-name="Path 1081" d="M322.19,289.86h6.25l.18,119.55a2.27,2.27,0,0,1-2.27,2.27h0a2.28,2.28,0,0,1-2.27-2.24Z" transform="translate(-130.272 -279.7)" fill="#263238"/>
      <path id="Path_1082" data-name="Path 1082" d="M328.44,289.86l.18,119.55a2.27,2.27,0,0,1-2.27,2.27h0a2.28,2.28,0,0,1-2.27-2.24l-1.89-119.58Z" transform="translate(-130.272 -279.7)" fill="#fff" opacity="0.2"/>
      <path id="Path_1083" data-name="Path 1083" d="M138.41,312.27l189.89-1.41V289.87H140.28Z" transform="translate(-130.272 -279.7)" fill="#1b44ca"/>
      <path id="Path_1084" data-name="Path 1084" d="M174.21,290.02l.35,21.98-36.15.27,1.87-22.4Z" transform="translate(-130.272 -279.7)" opacity="0.3"/>
      <path id="Path_1085" data-name="Path 1085" d="M335.63,284.82h0c0-2.82-1.06-5.11-2.36-5.12H137.45c-1.3,0-2.35,2.3-2.36,5.12h0c0,2.83,1.06,5.12,2.36,5.13H333.27C334.57,289.94,335.62,287.65,335.63,284.82Z" transform="translate(-130.272 -279.7)" fill="#263238"/>
      <path id="Path_1086" data-name="Path 1086" d="M335.63,284.82h0c0-2.82-1.06-5.11-2.36-5.12H137.45c-1.3,0-2.35,2.3-2.36,5.12h0c0,2.83,1.06,5.12,2.36,5.13H333.27C334.57,289.94,335.62,287.65,335.63,284.82Z" transform="translate(-130.272 -279.7)" fill="#fff" opacity="0.1"/>
      <path id="Path_1087" data-name="Path 1087" d="M185.64,284.82h0c0-2.82-1-5.11-2.35-5.12H137.45c-1.3,0-2.35,2.3-2.36,5.12h0c0,2.83,1.06,5.12,2.36,5.13h45.84C184.59,289.94,185.64,287.65,185.64,284.82Z" transform="translate(-130.272 -279.7)" opacity="0.3"/>
    </g>
    <g id="freepik--Device--inject-57" transform="translate(156.78 262.019)">
      <path id="Path_1088" data-name="Path 1088" d="M285.28,280.22H264.71l.47-2.23c2.2-5.91,13.44-5.91,13.44-5.91,2.79.16,5.51,2.77,6.29,6.42Z" transform="translate(-156.78 -194.65)" fill="#1b44ca"/>
      <path id="Path_1089" data-name="Path 1089" d="M228.2,276.92h20.66l2.46-21.6H232.56Z" transform="translate(-156.78 -194.65)" fill="#263238"/>
      <path id="Path_1090" data-name="Path 1090" d="M224.55,279.66h1v.25h35v-3H228.2l4.36-21.6h18.76l1-9.16a2.34,2.34,0,0,0-2.34-2.24H233.94a2.37,2.37,0,0,0-2.35,2.24Z" transform="translate(-156.78 -194.65)" fill="#263238"/>
      <path id="Path_1091" data-name="Path 1091" d="M228.2,276.92h20.66l2.27-19.9.19-1.7H232.56Z" transform="translate(-156.78 -194.65)" fill="#263238"/>
      <path id="Path_1092" data-name="Path 1092" d="M250.46,262.51l.86-7.19H229.67l-1.51,7.19Z" transform="translate(-156.78 -194.65)" opacity="0.1"/>
      <path id="Path_1093" data-name="Path 1093" d="M261,277.55h2.46a.44.44,0,0,0,.46-.42v-2.37a.44.44,0,0,0-.46-.43H261.7a.47.47,0,0,0-.45.32l-.69,2.37a.43.43,0,0,0,.44.53Z" transform="translate(-156.78 -194.65)" fill="#263238"/>
      <path id="Path_1094" data-name="Path 1094" d="M257.62,277.55h2.46a.45.45,0,0,0,.46-.42v-2.37a.45.45,0,0,0-.46-.43h-1.77a.47.47,0,0,0-.45.32l-.69,2.37a.43.43,0,0,0,.45.53Z" transform="translate(-156.78 -194.65)" fill="#263238"/>
      <path id="Path_1095" data-name="Path 1095" d="M254.23,277.55h2.45a.45.45,0,0,0,.47-.42v-2.37a.45.45,0,0,0-.47-.43h-1.76a.46.46,0,0,0-.45.32l-.69,2.37a.43.43,0,0,0,.45.53Z" transform="translate(-156.78 -194.65)" fill="#263238"/>
      <path id="Path_1096" data-name="Path 1096" d="M250.84,277.55h2.45a.45.45,0,0,0,.47-.42v-2.37a.45.45,0,0,0-.47-.43h-1.76a.46.46,0,0,0-.45.32l-.69,2.37a.43.43,0,0,0,.45.53Z" transform="translate(-156.78 -194.65)" fill="#263238"/>
      <path id="Path_1097" data-name="Path 1097" d="M247.45,277.55h2.45a.45.45,0,0,0,.47-.42v-2.37a.45.45,0,0,0-.47-.43h-1.76a.46.46,0,0,0-.45.32L247,277a.43.43,0,0,0,.45.55Z" transform="translate(-156.78 -194.65)" fill="#263238"/>
      <path id="Path_1098" data-name="Path 1098" d="M244.06,277.55h2.45a.45.45,0,0,0,.47-.42v-2.37a.45.45,0,0,0-.47-.43h-1.76a.46.46,0,0,0-.45.32l-.69,2.37a.43.43,0,0,0,.45.53Z" transform="translate(-156.78 -194.65)" fill="#263238"/>
      <path id="Path_1099" data-name="Path 1099" d="M240.67,277.55h2.45a.45.45,0,0,0,.47-.42v-2.37a.45.45,0,0,0-.47-.43h-1.76a.46.46,0,0,0-.45.32l-.7,2.37a.44.44,0,0,0,.46.53Z" transform="translate(-156.78 -194.65)" fill="#263238"/>
      <path id="Path_1100" data-name="Path 1100" d="M237.28,277.55h2.45a.45.45,0,0,0,.47-.42v-2.37a.45.45,0,0,0-.47-.43H238a.46.46,0,0,0-.45.32l-.7,2.37a.44.44,0,0,0,.43.53Z" transform="translate(-156.78 -194.65)" fill="#263238"/>
      <path id="Path_1101" data-name="Path 1101" d="M233.89,277.55h2.45a.45.45,0,0,0,.47-.42v-2.37a.45.45,0,0,0-.47-.43h-1.76a.46.46,0,0,0-.45.32l-.7,2.37a.44.44,0,0,0,.46.53Z" transform="translate(-156.78 -194.65)" fill="#263238"/>
      <path id="Path_1102" data-name="Path 1102" d="M230.49,277.55H233a.45.45,0,0,0,.47-.42v-2.37a.45.45,0,0,0-.47-.43h-1.76a.47.47,0,0,0-.46.32L230,277a.43.43,0,0,0,.49.55Z" transform="translate(-156.78 -194.65)" fill="#263238"/>
      <path id="Path_1103" data-name="Path 1103" d="M227.1,277.55h2.46a.45.45,0,0,0,.47-.42v-2.37a.45.45,0,0,0-.47-.43H227.8a.47.47,0,0,0-.46.32l-.69,2.37a.43.43,0,0,0,.45.53Z" transform="translate(-156.78 -194.65)" fill="#263238"/>
      <path id="Path_1104" data-name="Path 1104" d="M223.71,277.55h2.46a.45.45,0,0,0,.47-.42v-2.37a.45.45,0,0,0-.47-.43h-1.76a.47.47,0,0,0-.46.32l-.69,2.37a.43.43,0,0,0,.45.53Z" transform="translate(-156.78 -194.65)" fill="#263238"/>
      <path id="Path_1105" data-name="Path 1105" d="M220.32,277.55h2.46a.45.45,0,0,0,.46-.42v-2.37a.45.45,0,0,0-.46-.43H221a.47.47,0,0,0-.45.32l-.69,2.37a.43.43,0,0,0,.46.53Z" transform="translate(-156.78 -194.65)" fill="#263238"/>
      <path id="Path_1106" data-name="Path 1106" d="M216.93,277.55h2.46a.45.45,0,0,0,.46-.42v-2.37a.45.45,0,0,0-.46-.43h-1.77a.47.47,0,0,0-.45.32l-.69,2.37a.43.43,0,0,0,.45.53Z" transform="translate(-156.78 -194.65)" fill="#263238"/>
      <path id="Path_1107" data-name="Path 1107" d="M213.54,277.55H216a.45.45,0,0,0,.47-.42v-2.37a.45.45,0,0,0-.47-.43h-1.76a.46.46,0,0,0-.45.32l-.69,2.37a.43.43,0,0,0,.44.53Z" transform="translate(-156.78 -194.65)" fill="#263238"/>
      <path id="Path_1108" data-name="Path 1108" d="M211.07,277.81a2,2,0,0,0,2,1.86h50.77a2,2,0,0,0,2.05-1.86,1.76,1.76,0,0,0-.6-1.32,2.11,2.11,0,0,0-1.4-.54H213.11a2,2,0,0,0-.56.07,1.9,1.9,0,0,0-1.48,1.79Z" transform="translate(-156.78 -194.65)" fill="#263238"/>
      <path id="Path_1109" data-name="Path 1109" d="M211.07,277.81a2,2,0,0,0,2,1.86h50.77a2,2,0,0,0,2.05-1.86,1.76,1.76,0,0,0-.6-1.32,2.11,2.11,0,0,0-1.4-.54H213.11a2,2,0,0,0-.56.07,1.9,1.9,0,0,0-1.48,1.79Z" transform="translate(-156.78 -194.65)" fill="#fff" opacity="0.2"/>
      <path id="Path_1110" data-name="Path 1110" d="M211.07,277.81a2,2,0,0,0,2,1.86H230.3a1.89,1.89,0,0,0,1.42-1.78,1.759,1.759,0,0,0,0-.33,1.84,1.84,0,0,0-.57-1,2.323,2.323,0,0,0-.44-.31l-.24-.11a2.24,2.24,0,0,0-.78-.13H212.55a1.9,1.9,0,0,0-1.48,1.8Z" transform="translate(-156.78 -194.65)" fill="#263238"/>
      <path id="Path_1111" data-name="Path 1111" d="M196.46,194.65h5.19l5.83,63.27h-5.19a1.88,1.88,0,0,1-1.72-1.79l-5.5-59.69a1.51,1.51,0,0,1,1.39-1.79Z" transform="translate(-156.78 -194.65)" fill="#1b44ca"/>
      <path id="Path_1112" data-name="Path 1112" d="M196.46,194.65h5.19l5.83,63.27h-5.19a1.88,1.88,0,0,1-1.72-1.79l-5.5-59.69a1.51,1.51,0,0,1,1.39-1.79Z" transform="translate(-156.78 -194.65)" opacity="0.3"/>
      <path id="Path_1113" data-name="Path 1113" d="M204.48,257.92h77.76a1.51,1.51,0,0,0,1.39-1.79l-5.5-59.69a1.88,1.88,0,0,0-1.72-1.79H198.65a1.51,1.51,0,0,0-1.39,1.79l5.5,59.69a1.88,1.88,0,0,0,1.72,1.79Z" transform="translate(-156.78 -194.65)" fill="#1b44ca"/>
      <path id="Path_1114" data-name="Path 1114" d="M206.83,245.23h70.62l-3.92-44.77H202.91Z" transform="translate(-156.78 -194.65)" fill="#1b44ca"/>
      <path id="Path_1115" data-name="Path 1115" d="M207.8,248.73h69.59a3.23,3.23,0,0,0,3.27-3.57l-3.9-44.49a4,4,0,0,0-3.88-3.58h-69.6a3.23,3.23,0,0,0-3.26,3.58l3.89,44.49A4,4,0,0,0,207.8,248.73Z" transform="translate(-156.78 -194.65)" fill="#263238"/>
      <path id="Path_1116" data-name="Path 1116" d="M206.83,245.23h70.62l-3.92-44.77H202.91Z" transform="translate(-156.78 -194.65)" fill="#1b44ca"/>
      <path id="Path_1117" data-name="Path 1117" d="M206.83,245.23h70.62l-3.92-44.77H202.91Z" transform="translate(-156.78 -194.65)" fill="#fff" opacity="0.4"/>
      <path id="Path_1118" data-name="Path 1118" d="M230,202.91l3.41,39H207.48l-3.42-39H230m.92-1H203l.1,1.09,3.41,39,.08.92h27.89l-.09-1.09-3.41-39-.08-.91Z" transform="translate(-156.78 -194.65)" fill="#1b44ca"/>
      <path id="Path_1119" data-name="Path 1119" d="M233.36,241.91H207.47l-3.41-39h25.89Z" transform="translate(-156.78 -194.65)" fill="#fff"/>
      <path id="Path_1120" data-name="Path 1120" d="M215.09,214.83h-7.88l-.86-9.9h7.87Z" transform="translate(-156.78 -194.65)" fill="#1b44ca"/>
      <g id="Group_361" data-name="Group 361" transform="translate(49.57 10.28)" opacity="0.2">
        <path id="Path_1121" data-name="Path 1121" d="M207.28,204.93h-.93l.67,7.68h.25v-.56h.67v.56h.26l-.67-7.68Zm-.32,4.12-.09-1.12h.67l.1,1.12Zm.7.25.1,1.12h-.68L207,209.3Zm-.82-1.62-.09-1.12h.67l.1,1.12Zm-.12-1.38-.09-1.11h.67l.1,1.11Zm.48,5.49-.09-1.11h.67l.1,1.11Z" transform="translate(-206.35 -204.93)"/>
      </g>
      <g id="Group_362" data-name="Group 362" transform="translate(56.22 10.28)" opacity="0.2">
        <path id="Path_1122" data-name="Path 1122" d="M214,204.93h-1l.67,7.68H214l-.05-.56h.68v.56h.26l-.67-7.68Zm-.31,4.12-.1-1.12h.68l.09,1.12Zm.7.25.09,1.12h-.67l-.1-1.12Zm-.82-1.62-.1-1.12h.68l.09,1.12Zm-.12-1.38-.1-1.11H214l.09,1.11Zm.48,5.49-.1-1.11h.68l.09,1.11Z" transform="translate(-213 -204.93)"/>
      </g>
      <path id="Path_1123" data-name="Path 1123" d="M213.7,212.6l-5.49.01-.67-7.68h5.49Z" transform="translate(-156.78 -194.65)" fill="#fff" opacity="0.2"/>
      <path id="Path_1124" data-name="Path 1124" d="M212.9,208.87a2,2,0,0,1-2.07,2.27,2.53,2.53,0,0,1-2.48-2.27,2.05,2.05,0,0,1,2.08-2.27,2.53,2.53,0,0,1,2.47,2.27Z" transform="translate(-156.78 -194.65)" fill="#fff" opacity="0.2"/>
      <path id="Path_1125" data-name="Path 1125" d="M209.91,207.68l2,1.32-1.77,1.31Z" transform="translate(-156.78 -194.65)" fill="#fff"/>
      <path id="Path_1126" data-name="Path 1126" d="M216.17,227.23H208.3l-.87-9.89h7.87Z" transform="translate(-156.78 -194.65)" fill="#1b44ca"/>
      <g id="Group_363" data-name="Group 363" transform="translate(50.65 22.68)" opacity="0.2">
        <path id="Path_1127" data-name="Path 1127" d="M208.37,217.33h-.94l.67,7.68h.26l-.05-.56H209v.56h.25l-.67-7.68Zm-.32,4.12-.1-1.11h.68l.1,1.11Zm.7.26.1,1.12h-.68l-.1-1.12Zm-.82-1.63-.1-1.12h.68l.1,1.12Zm-.12-1.37-.1-1.12h.68l.1,1.12Zm.48,5.49-.1-1.12h.68l.1,1.12Z" transform="translate(-207.43 -217.33)"/>
      </g>
      <g id="Group_364" data-name="Group 364" transform="translate(57.33 22.68)" opacity="0.2">
        <path id="Path_1128" data-name="Path 1128" d="M215.05,217.33h-.94l.68,7.68H215v-.56h.68l.05.56H216l-.68-7.68Zm-.32,4.12-.1-1.11h.68l.1,1.11Zm.7.26.1,1.12h-.68l-.1-1.12Zm-.82-1.63-.1-1.12h.68l.1,1.12Zm-.12-1.37-.1-1.12h.68l.1,1.12Zm.48,5.49-.1-1.12h.68l.1,1.12Z" transform="translate(-214.11 -217.33)"/>
      </g>
      <path id="Path_1129" data-name="Path 1129" d="M214.78,225l-5.49.01-.67-7.67h5.5Z" transform="translate(-156.78 -194.65)" fill="#fff" opacity="0.2"/>
      <path id="Path_1130" data-name="Path 1130" d="M214,221.27a2.05,2.05,0,0,1-2.08,2.28,2.54,2.54,0,0,1-2.47-2.28,2,2,0,0,1,2.07-2.27,2.54,2.54,0,0,1,2.48,2.27Z" transform="translate(-156.78 -194.65)" fill="#fff" opacity="0.2"/>
      <path id="Path_1131" data-name="Path 1131" d="M211,220.09l2,1.31-1.77,1.32Z" transform="translate(-156.78 -194.65)" fill="#fff"/>
      <path id="Path_1132" data-name="Path 1132" d="M225.41,214.83h-7.87l-.87-9.9h7.88Z" transform="translate(-156.78 -194.65)" fill="#1b44ca"/>
      <g id="Group_365" data-name="Group 365" transform="translate(59.89 10.28)" opacity="0.2">
        <path id="Path_1133" data-name="Path 1133" d="M217.61,204.93h-.94l.68,7.68h.25v-.56h.68l.05.56h.26l-.68-7.68Zm-.32,4.12-.1-1.12h.68l.1,1.12Zm.7.26.1,1.11h-.68l-.1-1.11Zm-.82-1.63-.1-1.12h.68l.1,1.12Zm-.12-1.38-.1-1.11h.68l.1,1.11Zm.48,5.5-.1-1.12h.68l.1,1.12Z" transform="translate(-216.67 -204.93)"/>
      </g>
      <g id="Group_366" data-name="Group 366" transform="translate(66.58 10.28)" opacity="0.2">
        <path id="Path_1134" data-name="Path 1134" d="M224.29,204.93h-.93l.67,7.68h.25v-.56h.67l.05.56h.26l-.67-7.68Zm-.32,4.12-.09-1.12h.67l.1,1.12Zm.7.26.1,1.11h-.68l-.09-1.11Zm-.82-1.63-.09-1.12h.67l.1,1.12Zm-.12-1.38-.09-1.11h.67l.1,1.11Zm.48,5.5-.09-1.12h.67l.1,1.12Z" transform="translate(-223.36 -204.93)"/>
      </g>
      <path id="Path_1135" data-name="Path 1135" d="M224.03,212.6l-5.5.01-.67-7.68h5.5Z" transform="translate(-156.78 -194.65)" fill="#fff" opacity="0.2"/>
      <path id="Path_1136" data-name="Path 1136" d="M223.23,208.87a2,2,0,0,1-2.08,2.27,2.53,2.53,0,0,1-2.47-2.27,2.05,2.05,0,0,1,2.08-2.27,2.53,2.53,0,0,1,2.47,2.27Z" transform="translate(-156.78 -194.65)" fill="#fff" opacity="0.2"/>
      <path id="Path_1137" data-name="Path 1137" d="M220.24,207.68l2,1.32-1.77,1.31Z" transform="translate(-156.78 -194.65)" fill="#fff"/>
      <path id="Path_1138" data-name="Path 1138" d="M217.26,239.64h-7.88l-.86-9.9h7.87Z" transform="translate(-156.78 -194.65)" fill="#1b44ca"/>
      <g id="Group_367" data-name="Group 367" transform="translate(51.74 35.09)" opacity="0.2">
        <path id="Path_1139" data-name="Path 1139" d="M209.45,229.74h-.93l.67,7.68h.25v-.56h.67l.05.56h.26l-.67-7.68Zm-.32,4.12-.09-1.12h.67l.1,1.12Zm.7.25.1,1.12h-.68l-.09-1.12Zm-.82-1.63-.09-1.11h.67l.1,1.11Zm-.12-1.37L208.8,230h.67l.1,1.12Zm.48,5.49-.09-1.12H210l.1,1.12Z" transform="translate(-208.52 -229.74)"/>
      </g>
      <g id="Group_368" data-name="Group 368" transform="translate(58.42 35.09)" opacity="0.2">
        <path id="Path_1140" data-name="Path 1140" d="M216.13,229.74h-.93l.67,7.68h.26v-.56h.68l.05.56h.25l-.67-7.68Zm-.31,4.12-.1-1.12h.68l.09,1.12Zm.7.25.09,1.12h-.67l-.1-1.12Zm-.82-1.63-.1-1.11h.68l.09,1.11Zm-.12-1.37-.1-1.12h.68l.09,1.12Zm.48,5.49-.1-1.12h.68l.09,1.12Z" transform="translate(-215.2 -229.74)"/>
      </g>
      <path id="Path_1141" data-name="Path 1141" d="M215.87,237.41l-5.49.01-.67-7.68h5.49Z" transform="translate(-156.78 -194.65)" fill="#fff" opacity="0.2"/>
      <path id="Path_1142" data-name="Path 1142" d="M215.07,233.68A2,2,0,0,1,213,236a2.54,2.54,0,0,1-2.48-2.27,2.05,2.05,0,0,1,2.08-2.27,2.53,2.53,0,0,1,2.47,2.22Z" transform="translate(-156.78 -194.65)" fill="#fff" opacity="0.2"/>
      <path id="Path_1143" data-name="Path 1143" d="M212.08,232.49l2.01,1.31-1.78,1.32Z" transform="translate(-156.78 -194.65)" fill="#fff"/>
      <path id="Path_1144" data-name="Path 1144" d="M227.15,197.12l-13.8,51.59H218l13.64-51.59Z" transform="translate(-156.78 -194.65)" fill="#fff" opacity="0.1"/>
      <path id="Path_1145" data-name="Path 1145" d="M234.31,197.12l-13.79,51.59h9.2l13.64-51.59Z" transform="translate(-156.78 -194.65)" fill="#fff" opacity="0.1"/>
      <path id="Path_1146" data-name="Path 1146" d="M275.73,235.59H230.86l-2.32-26.5h44.87Z" transform="translate(-156.78 -194.65)" fill="#263238"/>
      <path id="Path_1147" data-name="Path 1147" d="M257.42,219.42a5,5,0,0,1-5.09,5.58,6.22,6.22,0,0,1-6.07-5.58,5,5,0,0,1,5.09-5.59,6.21,6.21,0,0,1,6.07,5.59Z" transform="translate(-156.78 -194.65)" fill="#fff"/>
      <path id="Path_1148" data-name="Path 1148" d="M254.9,219.62l-4.88-2.68.47,5.37Z" transform="translate(-156.78 -194.65)" fill="#263238"/>
      <path id="Path_1149" data-name="Path 1149" d="M274.68,230.39H231l-.08-.86H274.6Z" transform="translate(-156.78 -194.65)" fill="#fff"/>
      <path id="Path_1150" data-name="Path 1150" d="M255.48,230.39H231l-.08-.86h24.49Z" transform="translate(-156.78 -194.65)" fill="#1b44ca"/>
      <path id="Path_1151" data-name="Path 1151" d="M231.75,233.58h-.42l-.15-1.66h.42Z" transform="translate(-156.78 -194.65)" fill="#fff"/>
      <path id="Path_1152" data-name="Path 1152" d="M232.48,233.58h-.42l-.14-1.66h.42Z" transform="translate(-156.78 -194.65)" fill="#fff"/>
      <path id="Path_1153" data-name="Path 1153" d="M236.27,233.58h-1.66l-.14-1.66h1.66Z" transform="translate(-156.78 -194.65)" fill="#fff"/>
      <path id="Path_1154" data-name="Path 1154" d="M238.47,232.75l1.36-.83.14,1.66Z" transform="translate(-156.78 -194.65)" fill="#fff"/>
      <path id="Path_1155" data-name="Path 1155" d="M238.54,233.58h-.42l-.15-1.66h.42Z" transform="translate(-156.78 -194.65)" fill="#fff"/>
      <path id="Path_1156" data-name="Path 1156" d="M243.11,232.75l-1.5-.83.14,1.66Z" transform="translate(-156.78 -194.65)" fill="#fff"/>
      <path id="Path_1157" data-name="Path 1157" d="M243.19,233.58h.42l-.15-1.66h-.42Z" transform="translate(-156.78 -194.65)" fill="#fff"/>
      <path id="Path_1158" data-name="Path 1158" d="M246.19,231.89l-.74,1h1.66Z" transform="translate(-156.78 -194.65)" fill="#fff"/>
      <path id="Path_1159" data-name="Path 1159" d="M247.2,233.61l-.03-.42h-1.72l.04.42Z" transform="translate(-156.78 -194.65)" fill="#fff"/>
      <path id="Path_1160" data-name="Path 1160" d="M275,233.71h-3.2l-.17-2h3.19Zm-2.95-.27h2.65l-.12-1.41h-2.65Z" transform="translate(-156.78 -194.65)" fill="#fff"/>
      <path id="Path_1161" data-name="Path 1161" d="M269.44,233.71h-.65l-.05-.57.27-.02.03.32h.4Z" transform="translate(-156.78 -194.65)" fill="#fff"/>
      <path id="Path_1162" data-name="Path 1162" d="M270.87,233.71h-.65v-.27h.36l-.03-.3.27-.02Z" transform="translate(-156.78 -194.65)" fill="#fff"/>
      <path id="Path_1163" data-name="Path 1163" d="M270.49,232.38l-.04-.35h-.37v-.27h.62l.05.6Z" transform="translate(-156.78 -194.65)" fill="#fff"/>
      <path id="Path_1164" data-name="Path 1164" d="M268.68,232.38l-.06-.62h.67v.27h-.37l.03.33Z" transform="translate(-156.78 -194.65)" fill="#fff"/>
      <path id="Path_1165" data-name="Path 1165" d="M236.92,209.09h5.07l-6.01,26.5h-5.13Z" transform="translate(-156.78 -194.65)" fill="#fff" stroke="#263238" stroke-linecap="round" stroke-linejoin="round" stroke-width="1" opacity="0.1"/>
      <path id="Path_1166" data-name="Path 1166" d="M262.14,235.59l6.07-26.5h5.08l-6.01,26.5Z" transform="translate(-156.78 -194.65)" fill="#fff" stroke="#263238" stroke-linecap="round" stroke-linejoin="round" stroke-width="1" opacity="0.1"/>
      <path id="Path_1167" data-name="Path 1167" d="M273.69,212.31l-3.94,17.22-.2.86-.34,1.5-.32,1.38-.53,2.32h1.32l.84-3.7.34-1.5.19-.86,2.99-13.17" transform="translate(-156.78 -194.65)" fill="#fff" stroke="#263238" stroke-linecap="round" stroke-linejoin="round" stroke-width="1" opacity="0.1"/>
      <path id="Path_1168" data-name="Path 1168" d="M273.41,209.09H228.54l-.21-2.4H273.2Z" transform="translate(-156.78 -194.65)" fill="#1b44ca"/>
      <path id="Path_1169" data-name="Path 1169" d="M231.72,207.91a.67.67,0,0,1-.68.74.81.81,0,0,1-.8-.74.67.67,0,0,1,.67-.74A.83.83,0,0,1,231.72,207.91Z" transform="translate(-156.78 -194.65)" fill="#fff"/>
      <path id="Path_1170" data-name="Path 1170" d="M233.94,207.91a.67.67,0,0,1-.68.74.81.81,0,0,1-.8-.74.66.66,0,0,1,.67-.74.83.83,0,0,1,.81.74Z" transform="translate(-156.78 -194.65)" fill="#fff"/>
      <path id="Path_1171" data-name="Path 1171" d="M236.15,207.91a.66.66,0,0,1-.67.74.83.83,0,0,1-.81-.74.67.67,0,0,1,.68-.74.81.81,0,0,1,.8.74Z" transform="translate(-156.78 -194.65)" fill="#fff"/>
      <path id="Path_1172" data-name="Path 1172" d="M189.12,279.7H163.47l-6.69-76.59h25.64Z" transform="translate(-156.78 -194.65)" fill="#1b44ca"/>
      <path id="Path_1173" data-name="Path 1173" d="M189.12,279.7H163.47l-6.69-76.59h25.64Z" transform="translate(-156.78 -194.65)" opacity="0.3"/>
      <path id="Path_1174" data-name="Path 1174" d="M191.64,279.7H165.99l-6.7-76.59h25.65Z" transform="translate(-156.78 -194.65)" fill="#1b44ca"/>
      <path id="Path_1175" data-name="Path 1175" d="M172.94,209a8.8,8.8,0,0,0-8.91,9.76,10.88,10.88,0,0,0,10.62,9.76,8.8,8.8,0,0,0,8.9-9.76A10.86,10.86,0,0,0,172.94,209Z" transform="translate(-156.78 -194.65)" opacity="0.5"/>
      <path id="Path_1176" data-name="Path 1176" d="M171.15,219.42a3.08,3.08,0,0,0,3,2.78,2.5,2.5,0,0,0,2.53-2.78,3.1,3.1,0,0,0-3-2.77,2.5,2.5,0,0,0-2.53,2.77Z" transform="translate(-156.78 -194.65)" fill="#1b44ca"/>
      <path id="Path_1177" data-name="Path 1177" d="M170.77,237.8a5.3,5.3,0,0,0,5.18,4.76,4.29,4.29,0,0,0,4.34-4.76,5.31,5.31,0,0,0-5.18-4.77h0a4.3,4.3,0,0,0-4.34,4.77Z" transform="translate(-156.78 -194.65)" opacity="0.5"/>
      <path id="Path_1178" data-name="Path 1178" d="M172.46,250a4.57,4.57,0,0,0,4.47,4.12,3.71,3.71,0,0,0,3.76-4.12,4.59,4.59,0,0,0-4.48-4.12h0a3.71,3.71,0,0,0-3.75,4.12Z" transform="translate(-156.78 -194.65)" opacity="0.5"/>
      <path id="Path_1179" data-name="Path 1179" d="M174.06,261.22a3.87,3.87,0,0,0,3.78,3.47,3.12,3.12,0,0,0,3.16-3.47,3.85,3.85,0,0,0-3.77-3.47h0a3.13,3.13,0,0,0-3.17,3.47Z" transform="translate(-156.78 -194.65)" opacity="0.5"/>
      <path id="Path_1180" data-name="Path 1180" d="M175.49,270.52a3.15,3.15,0,0,0,3.08,2.82,2.54,2.54,0,0,0,2.58-2.82,3.14,3.14,0,0,0-3.08-2.83h0a2.55,2.55,0,0,0-2.58,2.83Z" transform="translate(-156.78 -194.65)" opacity="0.5"/>
      <path id="Path_1181" data-name="Path 1181" d="M319.67,279.6H294.02l-6.7-76.59h25.65Z" transform="translate(-156.78 -194.65)" fill="#1b44ca"/>
      <path id="Path_1182" data-name="Path 1182" d="M319.67,279.6H294.02l-6.7-76.59h25.65Z" transform="translate(-156.78 -194.65)" opacity="0.3"/>
      <path id="Path_1183" data-name="Path 1183" d="M322.19,279.6H296.54l-6.7-76.59h25.65Z" transform="translate(-156.78 -194.65)" fill="#1b44ca"/>
      <path id="Path_1184" data-name="Path 1184" d="M303.49,208.9a8.8,8.8,0,0,0-8.91,9.76,10.88,10.88,0,0,0,10.62,9.76,8.8,8.8,0,0,0,8.9-9.76A10.86,10.86,0,0,0,303.49,208.9Z" transform="translate(-156.78 -194.65)" opacity="0.5"/>
      <path id="Path_1185" data-name="Path 1185" d="M301.7,219.33a3.08,3.08,0,0,0,3,2.77,2.5,2.5,0,0,0,2.53-2.77,3.1,3.1,0,0,0-3-2.78,2.5,2.5,0,0,0-2.53,2.78Z" transform="translate(-156.78 -194.65)" fill="#1b44ca"/>
      <path id="Path_1186" data-name="Path 1186" d="M301.32,237.7a5.3,5.3,0,0,0,5.18,4.76,4.29,4.29,0,0,0,4.34-4.76,5.3,5.3,0,0,0-5.18-4.76h0a4.29,4.29,0,0,0-4.34,4.76Z" transform="translate(-156.78 -194.65)" opacity="0.5"/>
      <path id="Path_1187" data-name="Path 1187" d="M303,249.89a4.57,4.57,0,0,0,4.47,4.12,3.71,3.71,0,0,0,3.76-4.12,4.58,4.58,0,0,0-4.48-4.11h0a3.7,3.7,0,0,0-3.75,4.11Z" transform="translate(-156.78 -194.65)" opacity="0.5"/>
      <path id="Path_1188" data-name="Path 1188" d="M304.61,261.12a3.87,3.87,0,0,0,3.78,3.47,3.12,3.12,0,0,0,3.16-3.47,3.85,3.85,0,0,0-3.77-3.47h0a3.13,3.13,0,0,0-3.17,3.47Z" transform="translate(-156.78 -194.65)" opacity="0.5"/>
      <path id="Path_1189" data-name="Path 1189" d="M306,270.42a3.16,3.16,0,0,0,3.08,2.83,2.55,2.55,0,0,0,2.58-2.83,3.15,3.15,0,0,0-3.08-2.83h0a2.56,2.56,0,0,0-2.58,2.83Z" transform="translate(-156.78 -194.65)" opacity="0.5"/>
    </g>
    <g id="freepik--video-files--inject-57" transform="translate(107.51 131.92)">
      <path id="Path_1190" data-name="Path 1190" d="M115.28,180.29l-4.67-77.4v-.3a3.72,3.72,0,0,1,3.75-3.68l206.19-.47a4.3,4.3,0,0,1,4.23,4l4.67,77.4v.31a3.71,3.71,0,0,1-3.75,3.67l-206.2.47A4.3,4.3,0,0,1,115.28,180.29Z" transform="translate(-107.51 -72.92)" fill="#fff"/>
      <path id="Path_1191" data-name="Path 1191" d="M191.84,99.3h-56.6l-.04-.43,56.59-.14Z" transform="translate(-107.51 -72.92)" fill="#fff"/>
      <path id="Path_1192" data-name="Path 1192" d="M329.45,180.13a3.72,3.72,0,0,1-3.75,3.67l-206.2.47a4.29,4.29,0,0,1-4.22-4l-4.67-77.4v-.31a3.73,3.73,0,0,1,3.75-3.68h15.85l-.32-3.69a5.48,5.48,0,0,1,5.55-6.08h44.43a6.76,6.76,0,0,1,6.61,6.08l.32,3.55,133.76-.3a4.32,4.32,0,0,1,4.22,4l4.67,77.39C329.45,179.93,329.45,180,329.45,180.13Z" transform="translate(-107.51 -72.92)" fill="#fff"/>
      <path id="Path_1193" data-name="Path 1193" d="M179.86,89.1a6.76,6.76,0,0,1,6.61,6.08l.32,3.55,133.76-.3a4.32,4.32,0,0,1,4.22,4l4.67,77.39v.32a3.71,3.71,0,0,1-3.71,3.67h0l-206.2.47a4.29,4.29,0,0,1-4.22-4l-4.67-77.4v-.31a3.73,3.73,0,0,1,3.73-3.68h15.85l-.32-3.69a5.48,5.48,0,0,1,5.55-6.08h44.43m0-3.06H135.43a8.54,8.54,0,0,0-8.6,9.41v.37H114.31a6.8,6.8,0,0,0-6.8,6.711v.519l4.67,77.41a7.33,7.33,0,0,0,7.24,6.85l206.25-.47a6.79,6.79,0,0,0,6.8-6.7v-.57l-4.67-77.36a7.35,7.35,0,0,0-7.23-6.86h-.06l-131,.29-.07-.75A9.76,9.76,0,0,0,179.86,86Z" transform="translate(-107.51 -72.92)" fill="#1b44ca"/>
      <rect id="Rectangle_406" data-name="Rectangle 406" width="45.8" height="57.59" transform="translate(14.21 8.85)" fill="#1b44ca"/>
      <g id="Group_369" data-name="Group 369" transform="translate(14.21 8.85)" opacity="0.2">
        <path id="Path_1194" data-name="Path 1194" d="M127.16,81.77h-5.44v44.67h1.49v-3.25h4v3.25h1.49V81.77Zm-4,24v-6.5h4v6.5Zm4,1.48v6.5h-4v-6.5Zm-4-9.47v-6.5h4v6.5Zm0-8v-6.5h4v6.5Zm0,32v-6.5h4v6.5Z" transform="translate(-121.72 -81.77)"/>
      </g>
      <g id="Group_370" data-name="Group 370" transform="translate(53.06 8.85)" opacity="0.2">
        <path id="Path_1195" data-name="Path 1195" d="M166,81.77h-5.43v44.67h1.49v-3.25H166v3.25h1.49V81.77Zm-3.94,24v-6.5H166v6.5Zm3.94,1.48v6.5h-3.9v-6.5Zm-3.94-9.47v-6.5H166v6.5Zm0-8v-6.5H166v6.5Zm0,32v-6.5H166v6.5Z" transform="translate(-160.57 -81.77)"/>
      </g>
      <path id="Path_1196" data-name="Path 1196" d="M160.61,126.38l-31.96.06V81.77h31.96Z" transform="translate(-107.51 -72.92)" fill="#fff" opacity="0.2"/>
      <path id="Path_1197" data-name="Path 1197" d="M157.85,104.69a13.23,13.23,0,1,1-13.22-13.22,13.23,13.23,0,0,1,13.22,13.22Z" transform="translate(-107.51 -72.92)" fill="#fff" opacity="0.2"/>
      <path id="Path_1198" data-name="Path 1198" d="M141.07,97.78l10.98,7.64-10.98,7.65Z" transform="translate(-107.51 -72.92)" fill="#fff"/>
      <path id="Path_1199" data-name="Path 1199" d="M152.05,105.42l-.84.58-10.15-7.06V97.77Z" transform="translate(-107.51 -72.92)" fill="#1b44ca"/>
      <path id="Path_1200" data-name="Path 1200" d="M139.24,136.86v-4.57L137,136.06h-.8l-2.2-3.67v4.47h-1.65v-7.62h1.45l2.86,4.74,2.8-4.74h1.45v7.62Z" transform="translate(-107.51 -72.92)" fill="#fff"/>
      <path id="Path_1201" data-name="Path 1201" d="M145.47,133.87l-1,1.07v1.92H142.7v-7.62h1.75v3.56l3.37-3.56h2l-3.16,3.4,3.35,4.22h-2.06Z" transform="translate(-107.51 -72.92)" fill="#fff"/>
      <path id="Path_1202" data-name="Path 1202" d="M157.64,129.24l-3.3,7.62H152.6l-3.29-7.62h1.9l2.32,5.45,2.35-5.45Z" transform="translate(-107.51 -72.92)" fill="#fff"/>
      <rect id="Rectangle_407" data-name="Rectangle 407" width="45.8" height="57.59" transform="translate(64.14 21.68)" fill="#1b44ca"/>
      <g id="Group_371" data-name="Group 371" transform="translate(64.14 21.68)" opacity="0.2">
        <path id="Path_1203" data-name="Path 1203" d="M177.09,94.6h-5.44v44.67h1.49V136h4v3.25h1.49V94.6Zm-4,24v-6.5h4v6.5Zm4,1.49v6.5h-4v-6.5Zm-4-9.48v-6.5h4v6.5Zm0-8v-6.5h4v6.5Zm0,31.94V128h4v6.5Z" transform="translate(-171.65 -94.6)"/>
      </g>
      <g id="Group_372" data-name="Group 372" transform="translate(103.06 21.68)" opacity="0.2">
        <path id="Path_1204" data-name="Path 1204" d="M216,94.6h-5.43v44.67H212V136h4v3.25h1.49V94.6Zm-3.94,24v-6.5H216v6.5Zm3.94,1.49v6.5h-4v-6.5Zm-4-9.52v-6.5h4v6.5Zm0-8v-6.5h4v6.5Zm0,31.94V128h4v6.5Z" transform="translate(-210.57 -94.6)"/>
      </g>
      <path id="Path_1205" data-name="Path 1205" d="M210.54,139.22l-31.96.05V94.6h31.96Z" transform="translate(-107.51 -72.92)" fill="#fff" opacity="0.2"/>
      <path id="Path_1206" data-name="Path 1206" d="M207.78,117.53a13.23,13.23,0,1,1-13.22-13.23,13.23,13.23,0,0,1,13.22,13.23Z" transform="translate(-107.51 -72.92)" fill="#fff" opacity="0.2"/>
      <path id="Path_1207" data-name="Path 1207" d="M191,110.61l10.98,7.65L191,125.9Z" transform="translate(-107.51 -72.92)" fill="#fff"/>
      <path id="Path_1208" data-name="Path 1208" d="M201.98,118.25l-.83.58L191,111.77v-1.16Z" transform="translate(-107.51 -72.92)" fill="#1b44ca"/>
      <path id="Path_1209" data-name="Path 1209" d="M189.93,148.07h-3.54l-.67,1.63h-1.81l3.4-7.62h1.74l3.41,7.62h-1.85Zm-.55-1.34-1.21-2.92L187,146.73Z" transform="translate(-107.51 -72.92)" fill="#fff"/>
      <path id="Path_1210" data-name="Path 1210" d="M200.16,142.08l-3.3,7.62h-1.74l-3.29-7.62h1.91l2.31,5.44,2.36-5.44Z" transform="translate(-107.51 -72.92)" fill="#fff"/>
      <path id="Path_1211" data-name="Path 1211" d="M200.79,142.08h1.76v7.62h-1.76Z" transform="translate(-107.51 -72.92)" fill="#fff"/>
      <rect id="Rectangle_408" data-name="Rectangle 408" width="45.8" height="57.59" transform="translate(113.86)" fill="#1b44ca"/>
      <g id="Group_373" data-name="Group 373" transform="translate(113.86)" opacity="0.2">
        <path id="Path_1212" data-name="Path 1212" d="M226.8,72.92h-5.43v44.67h1.49v-3.25h3.94v3.25h1.49V72.92Zm-3.94,24v-6.5h3.94v6.5Zm3.94,1.48v6.5h-3.94V98.4Zm-3.94-9.47v-6.5h3.94v6.5Zm0-8V74.4h3.94v6.5Zm0,31.95v-6.5h3.94v6.5Z" transform="translate(-221.37 -72.92)"/>
      </g>
      <g id="Group_374" data-name="Group 374" transform="translate(152.74)" opacity="0.2">
        <path id="Path_1213" data-name="Path 1213" d="M265.68,72.92h-5.43v44.67h1.49v-3.25h3.94v3.25h1.49V72.92Zm-3.94,24v-6.5h3.94v6.5Zm3.94,1.48v6.5h-3.94V98.4Zm-3.94-9.47v-6.5h3.94v6.5Zm0-8V74.4h3.94v6.5Zm0,31.95v-6.5h3.94v6.5Z" transform="translate(-260.25 -72.92)"/>
      </g>
      <path id="Path_1214" data-name="Path 1214" d="M260.25,117.53l-31.96.06V72.92h31.96Z" transform="translate(-107.51 -72.92)" fill="#fff" opacity="0.2"/>
      <path id="Path_1215" data-name="Path 1215" d="M257.49,95.84a13.22,13.22,0,1,1-13.22-13.22A13.22,13.22,0,0,1,257.49,95.84Z" transform="translate(-107.51 -72.92)" fill="#fff" opacity="0.2"/>
      <path id="Path_1216" data-name="Path 1216" d="M240.71,88.93l10.99,7.64-10.99,7.65Z" transform="translate(-107.51 -72.92)" fill="#fff"/>
      <path id="Path_1217" data-name="Path 1217" d="M251.7,96.57l-.84.58-10.15-7.06V88.93Z" transform="translate(-107.51 -72.92)" fill="#1b44ca"/>
      <path id="Path_1218" data-name="Path 1218" d="M238.88,128v-4.58l-2.24,3.77h-.79l-2.24-3.67V128H232v-7.6h1.46l2.85,4.73,2.81-4.73h1.45v7.62Z" transform="translate(-107.51 -72.92)" fill="#fff"/>
      <path id="Path_1219" data-name="Path 1219" d="M249,123.16c0,1.7-1.28,2.75-3.31,2.75H244.1V128h-1.76v-7.6h3.3C247.67,120.4,249,121.45,249,123.16Zm-1.79,0c0-.84-.54-1.33-1.62-1.33H244.1v2.65h1.44c1.08,0,1.62-.48,1.62-1.32Z" transform="translate(-107.51 -72.92)" fill="#fff"/>
      <path id="Path_1220" data-name="Path 1220" d="M256.47,126.42h-1.24V128h-1.72v-1.6h-4.1v-1.19L253,120.4h1.85l-3.33,4.6h2v-1.43h1.66V125h1.24Z" transform="translate(-107.51 -72.92)" fill="#fff"/>
      <rect id="Rectangle_409" data-name="Rectangle 409" width="45.8" height="57.59" transform="translate(163.45 9.89)" fill="#1b44ca"/>
      <g id="Group_375" data-name="Group 375" transform="translate(163.49 9.89)" opacity="0.2">
        <path id="Path_1221" data-name="Path 1221" d="M276.4,82.81H271v44.67h1.49v-3.24h3.95v3.24h1.49V82.81Zm-3.95,24v-6.5h3.95v6.5Zm3.95,1.49v6.5h-3.95v-6.5Zm-3.95-9.48v-6.5h3.95v6.5Zm0-8V84.3h3.95v6.5Zm0,32v-6.5h3.95v6.5Z" transform="translate(-271 -82.81)"/>
      </g>
      <g id="Group_376" data-name="Group 376" transform="translate(202.34 9.89)" opacity="0.2">
        <path id="Path_1222" data-name="Path 1222" d="M315.28,82.81h-5.43v44.67h1.49v-3.24h3.94v3.24h1.49V82.81Zm-3.94,24v-6.5h3.94v6.5Zm3.94,1.49v6.5h-3.94v-6.5Zm-3.94-9.48v-6.5h3.94v6.5Zm0-8V84.3h3.94v6.5Zm0,32v-6.5h3.94v6.5Z" transform="translate(-309.85 -82.81)"/>
      </g>
      <path id="Path_1223" data-name="Path 1223" d="M309.85,127.43l-31.96.05V82.81h31.96Z" transform="translate(-107.51 -72.92)" fill="#fff" opacity="0.2"/>
      <circle id="Ellipse_54" data-name="Ellipse 54" cx="13.22" cy="13.22" r="13.22" transform="translate(173.14 19.6)" fill="#fff" opacity="0.2"/>
      <path id="Path_1224" data-name="Path 1224" d="M290.31,98.82l10.98,7.65-10.98,7.64Z" transform="translate(-107.51 -72.92)" fill="#fff"/>
      <path id="Path_1225" data-name="Path 1225" d="M301.3,106.47l-.84.58-10.14-7.06V98.83Z" transform="translate(-107.51 -72.92)" fill="#1b44ca"/>
      <path id="Path_1226" data-name="Path 1226" d="M288.48,137.91v-4.57l-2.24,3.77h-.8l-2.23-3.67v4.47h-1.66v-7.62H283l2.85,4.74,2.81-4.74h1.45v7.62Z" transform="translate(-107.51 -72.92)" fill="#fff"/>
      <path id="Path_1227" data-name="Path 1227" d="M291.46,134.1a4.17,4.17,0,1,1,4.16,3.94,3.94,3.94,0,0,1-4.16-3.94Zm6.55,0a2.39,2.39,0,1,0-2.39,2.44A2.32,2.32,0,0,0,298,134.1Z" transform="translate(-107.51 -72.92)" fill="#fff"/>
      <path id="Path_1228" data-name="Path 1228" d="M308.19,130.29l-3.3,7.62h-1.74l-3.28-7.62h1.9l2.32,5.44,2.35-5.44Z" transform="translate(-107.51 -72.92)" fill="#fff"/>
      <path id="Path_1229" data-name="Path 1229" d="M233.42,178.27H218.54a5.85,5.85,0,0,1-5.7-5.24l-.11-1.33a4.73,4.73,0,0,1,4.78-5.24h14.88Z" transform="translate(-107.51 -72.92)" fill="#1b44ca"/>
      <path id="Path_1230" data-name="Path 1230" d="M242.45,177.33l-8.55-4.24-.21-2.4,7.81-4.23Z" transform="translate(-107.51 -72.92)" fill="#1b44ca"/>
      <path id="Path_1231" data-name="Path 1231" d="M243.58,177.33h-1.13l-.95-10.87h1.13Z" transform="translate(-107.51 -72.92)" fill="#1b44ca"/>
      <path id="Path_1232" data-name="Path 1232" d="M222.35,161.39a3.71,3.71,0,0,1-3.76,4.11,4.57,4.57,0,0,1-4.47-4.11,3.71,3.71,0,0,1,3.75-4.12,4.58,4.58,0,0,1,4.48,4.12Z" transform="translate(-107.51 -72.92)" fill="#1b44ca"/>
      <path id="Path_1233" data-name="Path 1233" d="M230.59,161.39a3.72,3.72,0,0,1-3.76,4.11,4.58,4.58,0,0,1-4.48-4.11,3.71,3.71,0,0,1,3.76-4.12,4.59,4.59,0,0,1,4.48,4.12Z" transform="translate(-107.51 -72.92)" fill="#1b44ca"/>
    </g>
    <g id="freepik--Character--inject-57" transform="translate(217.694 319.796)">
      <g id="freepik--character--inject-57-2" data-name="freepik--character--inject-57" transform="translate(79.143)">
        <path id="Path_1234" data-name="Path 1234" d="M301.74,203.57a22.261,22.261,0,0,1-2.35,5.47,3.41,3.41,0,0,0,2.89.17Z" transform="translate(-296.838 -182.456)" fill="#a02724"/>
        <path id="Path_1235" data-name="Path 1235" d="M323.85,209.37l-4.75,5-6.5,6.77a7.69,7.69,0,0,1,1.13,2.59c.58,2,1.08,3.51-3.32,5.49a2.66,2.66,0,0,0-1.65,2.34c0,1.25,1,2.61,5.34,2.69a19.69,19.69,0,0,0,11.67-3.89c1.66-1.18,1.5-2.25.46-4C323.17,221.53,323.25,214.74,323.85,209.37Z" transform="translate(-296.838 -182.456)" fill="#ff8b7b"/>
        <path id="Path_1236" data-name="Path 1236" d="M300.2,203.24c-.06.67.18,1.24.53,1.26s.67-.49.72-1.16-.18-1.23-.53-1.26S300.25,202.57,300.2,203.24Z" transform="translate(-296.838 -182.456)" fill="#263238"/>
        <path id="Path_1237" data-name="Path 1237" d="M300.79,199.5a4.48,4.48,0,0,1,4,1.56" transform="translate(-296.838 -182.456)" fill="none" stroke="#263238" stroke-linecap="round" stroke-linejoin="round" stroke-width="1"/>
        <path id="Path_1238" data-name="Path 1238" d="M301.69,212.3a12.12,12.12,0,0,0,7.1,8,11.07,11.07,0,0,0,3.67.83,10.35,10.35,0,0,0,8.21-3.34c4.13-4.39,3.86-9.34,4.13-17.76a11.72,11.72,0,0,0-16.22-11.29C300.43,192.23,299.65,204.76,301.69,212.3Z" transform="translate(-296.838 -182.456)" fill="#ff8b7b"/>
        <path id="Path_1239" data-name="Path 1239" d="M308.79,220.34a11.07,11.07,0,0,0,3.67.83l.14-.06-.8-1.56S311.31,220.88,308.79,220.34Z" transform="translate(-296.838 -182.456)" opacity="0.2"/>
        <path id="Path_1240" data-name="Path 1240" d="M328.16,205.52c-.9,3-2.13,6.15-4.43,8.33-.85.81-8.19,1.56-8.19,1.56-.35-2.48-4.9-10.46-6.89-13-.28,1.24-.74,6.59-1.16,7.77-.83,0-2.14-1.28-2.14-1.28a19.84,19.84,0,0,0,1-10.89l-.29-1.51c0,.32-4.85,2.6-7.21-1.81-8.81-16.49,13.79-13.56,20.06-7.13a6.21,6.21,0,0,1,6.39.8,10.19,10.19,0,0,1,3.51,5.66,21.74,21.74,0,0,1-.65,11.5Z" transform="translate(-296.838 -182.456)" fill="#263238"/>
      </g>
      <path id="Path_1241" data-name="Path 1241" d="M321.5,183.85a2.81,2.81,0,0,0-2.71,1.82c-.25.65-.5,2.22.23,2.55a23.619,23.619,0,0,1,2.48-4.37Z" transform="translate(-217.694 -182.456)" fill="#263238"/>
      <path id="Path_1242" data-name="Path 1242" d="M314.28,204.56a7.73,7.73,0,0,1-3,4.64c-2,1.42-4-.6-3.94-3,0-2.14,1.43-5.11,3.67-5.59S314.74,202.26,314.28,204.56Z" transform="translate(-217.694 -182.456)" fill="#ff8b7b"/>
      <path id="Path_1243" data-name="Path 1243" d="M274.64,399.39l-8.17-2.43,2.48-19.3L279,381.24Z" transform="translate(-217.694 -182.456)" fill="#ff8b7b"/>
      <path id="Path_1244" data-name="Path 1244" d="M280.13,375.86l-10.61-3.95-1.59,13.88,9.41,2.64Z" transform="translate(-217.694 -182.456)" opacity="0.2"/>
      <path id="Path_1245" data-name="Path 1245" d="M265.78,395.58l9.31,2.52a.72.72,0,0,1,.48.84l-1.41,8.86a1.57,1.57,0,0,1-1.83,1.35c-3.22-.94-4.73-1.58-8.82-2.69-2.52-.68-8.28-2.32-11.8-3s-2.81-4.77-1.26-4.87c7-.44,11-1.27,13.77-2.82A2.09,2.09,0,0,1,265.78,395.58Z" transform="translate(-217.694 -182.456)" fill="#263238"/>
      <path id="Path_1246" data-name="Path 1246" d="M261.43,396.9a10.567,10.567,0,0,0,2.24.22.16.16,0,0,0,.17-.11.2.2,0,0,0,0-.21c-.22-.25-2.2-2.41-3.3-2.26a.71.71,0,0,0-.58.43,1.12,1.12,0,0,0,0,1.13,2.37,2.37,0,0,0,1.47.8Zm1.83-.18c-1.56-.11-2.65-.36-2.94-.85a.67.67,0,0,1,.05-.71.35.35,0,0,1,.27-.23c.58-.09,1.8.95,2.62,1.79Z" transform="translate(-217.694 -182.456)" fill="#1b44ca"/>
      <path id="Path_1247" data-name="Path 1247" d="M263.68,397.12h.09a.2.2,0,0,0,.14-.14c0-.1.79-2.44.14-3.45a1,1,0,0,0-.75-.47.75.75,0,0,0-.84.42c-.41.86.41,2.89,1.12,3.58a.14.14,0,0,0,.1.06Zm-.33-3.64a.61.61,0,0,1,.37.28,4.35,4.35,0,0,1-.09,2.76,4,4,0,0,1-.81-2.86c0-.11.14-.23.43-.19Z" transform="translate(-217.694 -182.456)" fill="#1b44ca"/>
      <path id="Path_1248" data-name="Path 1248" d="M316,294.79s-45.71-.15-47.19,25.09c-1.45,17.74-2.37,25-1.49,63.66l12.17.67s12.38-41.83,10.71-58.44c13.64,0,44.86,1.19,49.39-11.11a54.62,54.62,0,0,0,3.24-19.49Z" transform="translate(-217.694 -182.456)" fill="#1b44ca"/>
      <g id="Group_377" data-name="Group 377" transform="translate(49.281 112.334)" opacity="0.3">
        <path id="Path_1249" data-name="Path 1249" d="M316,294.79s-45.71-.15-47.19,25.09c-1.45,17.74-2.37,25-1.49,63.66l12.17.67s12.38-41.83,10.71-58.44c13.64,0,44.86,1.19,49.39-11.11a54.62,54.62,0,0,0,3.24-19.49Z" transform="translate(-266.976 -294.79)"/>
      </g>
      <path id="Path_1250" data-name="Path 1250" d="M281.46,386.57l-15.9-2.72.26-7.04,16.46,3.66Z" transform="translate(-217.694 -182.456)" fill="#1b44ca"/>
      <path id="Path_1251" data-name="Path 1251" d="M243.09,401.92l-7.7-3.65,5.39-18.69,9.39,5.06Z" transform="translate(-217.694 -182.456)" fill="#ff8b7b"/>
      <path id="Path_1252" data-name="Path 1252" d="M252.1,379.5l-9.87-5.52-3.7,13.48,8.9,4.04Z" transform="translate(-217.694 -182.456)" opacity="0.2"/>
      <path id="Path_1253" data-name="Path 1253" d="M234.92,396.8l8.81,3.92a.71.71,0,0,1,.35.89l-2.75,8.55a1.58,1.58,0,0,1-2,1.06c-3-1.43-4.44-2.29-8.31-4-2.39-1.06-7.82-3.56-11.21-4.73s-2.05-5.15-.5-5c6.95.64,11,.42,14-.68a2.1,2.1,0,0,1,1.61-.01Z" transform="translate(-217.694 -182.456)" fill="#263238"/>
      <path id="Path_1254" data-name="Path 1254" d="M230.42,397.44a10.813,10.813,0,0,0,2.17.56.18.18,0,0,0,.2-.08.2.2,0,0,0,0-.21c-.17-.28-1.8-2.71-2.91-2.73a.7.7,0,0,0-.65.34,1.14,1.14,0,0,0-.18,1.11,2.32,2.32,0,0,0,1.37,1.01Zm1.83.11c-1.52-.35-2.56-.77-2.77-1.29a.71.71,0,0,1,.15-.7.4.4,0,0,1,.31-.19C230.53,395.38,231.57,396.58,232.25,397.55Z" transform="translate(-217.694 -182.456)" fill="#1b44ca"/>
      <path id="Path_1255" data-name="Path 1255" d="M232.6,398h.09a.26.26,0,0,0,.17-.12c0-.1,1.15-2.29.66-3.38a1,1,0,0,0-.67-.58.76.76,0,0,0-.9.28c-.53.79,0,2.92.57,3.71a.18.18,0,0,0,.08.09Zm.23-3.65a.59.59,0,0,1,.33.33,4.38,4.38,0,0,1-.51,2.72,4,4,0,0,1-.37-3c0-.11.17-.2.46-.12Z" transform="translate(-217.694 -182.456)" fill="#1b44ca"/>
      <path id="Path_1256" data-name="Path 1256" d="M301.63,294.79c-.32,0-50.91-4.93-54.3,23.84-5.37,35.22-8.75,64.91-8.75,64.91l10.65,5.28s18.56-37.59,18.28-61.16c14.83-4.26,53.2,2.89,57.74-9.4,3.71-10.06,1.7-23.47,1.7-23.47Z" transform="translate(-217.694 -182.456)" fill="#1b44ca"/>
      <path id="Path_1257" data-name="Path 1257" d="M301.63,294.79c-.32,0-50.91-4.93-54.3,23.84-5.37,35.22-8.75,64.91-8.75,64.91l10.65,5.28s18.56-37.59,18.28-61.16c14.83-4.26,53.2,2.89,57.74-9.4,3.71-10.06,1.7-23.47,1.7-23.47Z" transform="translate(-217.694 -182.456)" opacity="0.3"/>
      <path id="Path_1258" data-name="Path 1258" d="M250.94,390.35l-14.29-6.43,1.15-5.85,15.07,5.2Z" transform="translate(-217.694 -182.456)" fill="#1b44ca"/>
      <path id="Path_1259" data-name="Path 1259" d="M326.09,232.3c1.15,3.16,2.05,6.19,3,9.33s1.65,6.27,2.33,9.47,1.22,6.46,1.6,9.82a50.281,50.281,0,0,1,.15,10.55,21.4,21.4,0,0,1-1.45,6,13.76,13.76,0,0,1-1.9,3.28,10.68,10.68,0,0,1-1.53,1.55l-.45.37c-.24.17-.51.36-.77.51a7.361,7.361,0,0,1-1.35.59,9.8,9.8,0,0,1-2.13.48,12.461,12.461,0,0,1-1.73.1,24,24,0,0,1-2.93-.25,40.737,40.737,0,0,1-5.12-1,98,98,0,0,1-18.19-7l1.86-5.17c6,1.27,12.2,2.6,18.05,3.38,1.47.13,2.88.32,4.21.37a13.186,13.186,0,0,0,1.78-.06c.49,0,.92-.18.78-.19l-.29.11a1.668,1.668,0,0,0-.28.18h0l.1-.15a4.34,4.34,0,0,0,.36-.83,13.31,13.31,0,0,0,.54-3.19,41.6,41.6,0,0,0-.5-8.27c-.4-2.94-1-5.82-1.67-8.76s-1.42-5.88-2.26-8.82-1.75-5.9-2.65-8.68Z" transform="translate(-217.694 -182.456)" fill="#ff8b7b"/>
      <path id="Path_1260" data-name="Path 1260" d="M300,272.58l-6.06-4.15-3.81,6.62s7.18,3.76,8.92,2Z" transform="translate(-217.694 -182.456)" fill="#ff8b7b"/>
      <path id="Path_1261" data-name="Path 1261" d="M288.63,269.28l-3.32,4.36L290.1,275l3.81-6.62Z" transform="translate(-217.694 -182.456)" fill="#ff8b7b"/>
      <path id="Path_1262" data-name="Path 1262" d="M262.65,266.75l-8.88-1-2.55,9.76s10.15.09,11.75-2.82Z" transform="translate(-217.694 -182.456)" fill="#ff8b7b"/>
      <path id="Path_1263" data-name="Path 1263" d="M247.11,269.36l-1.52,3.74a1.71,1.71,0,0,0,1.57,2.36h4.06l2.55-9.76-5.8,2.71a1.78,1.78,0,0,0-.86.95Z" transform="translate(-217.694 -182.456)" fill="#ff8b7b"/>
      <path id="Path_1264" data-name="Path 1264" d="M339.84,230.29c-.73-1.93-4.1-3.86-6.18-3.86h-1.37A74.537,74.537,0,0,0,324,227a147.1,147.1,0,0,0-16.41,2.76,69.292,69.292,0,0,0-6.8,2.2h-.07a5.18,5.18,0,0,0-3.22,5.53c.85,6.21,2.49,18.84,3.47,31.41.77,9.81.45,19.55.7,26.25h41.17c1.42-8.05,1.19-15.07,1.31-29.6C344.24,256.81,342.82,238.23,339.84,230.29Z" transform="translate(-217.694 -182.456)" fill="#1b44ca"/>
      <path id="Path_1265" data-name="Path 1265" d="M339.84,230.29c-.73-1.93-4.1-3.86-6.18-3.86h-1.37A74.537,74.537,0,0,0,324,227a147.1,147.1,0,0,0-16.41,2.76,69.292,69.292,0,0,0-6.8,2.2h-.07a5.18,5.18,0,0,0-3.22,5.53c.85,6.21,2.49,18.84,3.47,31.41.77,9.81.45,19.55.7,26.25h41.17c1.42-8.05,1.19-15.07,1.31-29.6C344.24,256.81,342.82,238.23,339.84,230.29Z" transform="translate(-217.694 -182.456)" fill="#fff" opacity="0.8"/>
      <path id="Path_1266" data-name="Path 1266" d="M304.25,232.43a6.47,6.47,0,0,1,3.76,8.39c-2.94,7.61-7.88,19.68-10.06,23.92-.83,1.51-1.66,3-2.6,4.53-.48.76-1,1.51-1.57,2.29-.32.4-.56.76-.93,1.17l-.53.61-.3.34a8,8,0,0,1-3,2,14.227,14.227,0,0,1-1.82.57,19,19,0,0,1-3.09.41,40.1,40.1,0,0,1-5.37,0,97.578,97.578,0,0,1-19.54-3.65l-.68-6.75c6.29.18,12.72.39,18.72.09,1.41-.08,2.82-.23,4.22-.45a10.618,10.618,0,0,0,1.66-.42,2.55,2.55,0,0,0,.5-.24c.05,0,0-.07-.25.12a1.64,1.64,0,0,0-.25.21l.09-.12.24-.32c.16-.19.34-.5.52-.75.35-.53.71-1.11,1.06-1.73.69-1.22,1.35-2.56,2-3.92,1.3-2.72,2.48-5.59,3.63-8.48.81-2.06,3.2-8.3,5.22-13.87a6.47,6.47,0,0,1,8.37-3.87Z" transform="translate(-217.694 -182.456)" fill="#1b44ca"/>
      <path id="Path_1267" data-name="Path 1267" d="M300.1,259c.31,3.7.2,2.5.54,6.38,10.05-15.53,6.73-25.78,6.73-25.78Z" transform="translate(-217.694 -182.456)" opacity="0.2"/>
      <path id="Path_1268" data-name="Path 1268" d="M304.25,232.43a6.47,6.47,0,0,1,3.76,8.39c-2.94,7.61-7.88,19.68-10.06,23.92-.83,1.51-1.66,3-2.6,4.53-.48.76-1,1.51-1.57,2.29-.32.4-.56.76-.93,1.17l-.53.61-.3.34a8,8,0,0,1-3,2,14.227,14.227,0,0,1-1.82.57,19,19,0,0,1-3.09.41,40.1,40.1,0,0,1-5.37,0,97.578,97.578,0,0,1-19.54-3.65l-.68-6.75c6.29.18,12.72.39,18.72.09,1.41-.08,2.82-.23,4.22-.45a10.618,10.618,0,0,0,1.66-.42,2.55,2.55,0,0,0,.5-.24c.05,0,0-.07-.25.12a1.64,1.64,0,0,0-.25.21l.09-.12.24-.32c.16-.19.34-.5.52-.75.35-.53.71-1.11,1.06-1.73.69-1.22,1.35-2.56,2-3.92,1.3-2.72,2.48-5.59,3.63-8.48.81-2.06,3.2-8.3,5.22-13.87a6.47,6.47,0,0,1,8.37-3.87Z" transform="translate(-217.694 -182.456)" fill="#fff" opacity="0.8"/>
      <path id="Path_1269" data-name="Path 1269" d="M290.74,410.14a4.2,4.2,0,1,1-4.2-4.2A4.2,4.2,0,0,1,290.74,410.14Z" transform="translate(-217.694 -182.456)" fill="#263238"/>
      <path id="Path_1270" data-name="Path 1270" d="M352.39,410.14a4.2,4.2,0,1,0,4.2-4.2A4.2,4.2,0,0,0,352.39,410.14Z" transform="translate(-217.694 -182.456)" fill="#263238"/>
      <path id="Path_1271" data-name="Path 1271" d="M316,408.8a4.2,4.2,0,1,0,4.2-4.2,4.2,4.2,0,0,0-4.2,4.2Z" transform="translate(-217.694 -182.456)" fill="#263238"/>
      <path id="Path_1272" data-name="Path 1272" d="M365.74,404.5a2.07,2.07,0,0,1-2.07,1.65l-43.78-.6-41,.92a2.013,2.013,0,0,1-.45-4l22.39-4.35a37.723,37.723,0,0,1,7-.66h24.06a37.7,37.7,0,0,1,7,.66l25.16,4a2,2,0,0,1,1.69,2.38Z" transform="translate(-217.694 -182.456)" fill="#263238"/>
      <rect id="Rectangle_410" data-name="Rectangle 410" width="14.89" height="42.86" transform="translate(94.746 178.444)" fill="#263238"/>
      <rect id="Rectangle_411" data-name="Rectangle 411" width="10.62" height="27.37" transform="translate(96.886 151.294)" fill="#263238"/>
      <path id="Path_1273" data-name="Path 1273" d="M314.58,338.82l10.62,2.68v-7.75H314.58Z" transform="translate(-217.694 -182.456)" opacity="0.2"/>
      <rect id="Rectangle_412" data-name="Rectangle 412" width="5.39" height="23.02" transform="translate(57.656 112.184)" fill="#263238"/>
      <rect id="Rectangle_413" data-name="Rectangle 413" width="5.39" height="23.02" transform="translate(57.656 112.184)" fill="#263238"/>
      <path id="Path_1274" data-name="Path 1274" d="M316.51,243a11.851,11.851,0,0,0-.15,1.89V333.7h-8.57V244.93a1.484,1.484,0,0,1,0-.21Z" transform="translate(-217.694 -182.456)" fill="#263238"/>
      <path id="Path_1275" data-name="Path 1275" d="M366.41,333.64v.1H365A11.511,11.511,0,0,0,366.41,333.64Z" transform="translate(-217.694 -182.456)" fill="#263238"/>
      <path id="Path_1276" data-name="Path 1276" d="M375,242.47l-.63-10.55a12.6,12.6,0,0,0-3.48-7.95l-6.73-7-3.46-17.58a5.83,5.83,0,0,0-5.72-4.72H339.47a5.83,5.83,0,0,0-5.52,4l-6.49,18.91-12.38,7.62a12.61,12.61,0,0,0-5.86,8.87l-1.6,10.77h.18l8.71-1.68a11.851,11.851,0,0,0-.15,1.89v88.81H365a11.516,11.516,0,0,0,1.45-.1h0a10,10,0,0,0,8.56-9.92V244.15a14,14,0,0,0-.11-1.71Zm-41.09-6.7-15,1.43-.66.06,1.61-6.86,10.05-4.85,3.34-1.61.66,1.61.11.27.61,1.48Zm29.71.17h0l-1.89-.47c-.07-.59-.15-1.19-.22-1.78-.42-3.29-.8-6.39-.8-6.39l.15-1.08.31-2.28,7.15,6.46.1,1.53.37,5.33Z" transform="translate(-217.694 -182.456)" fill="#263238"/>
      <path id="Path_1277" data-name="Path 1277" d="M316.36,314.39v19.35h-56.5a6.93,6.93,0,0,1-6-10.48,18,18,0,0,1,15.52-8.87Z" transform="translate(-217.694 -182.456)" fill="#263238"/>
      <path id="Path_1278" data-name="Path 1278" d="M296.37,301.67a55.59,55.59,0,0,0-36.68,0,5.21,5.21,0,0,1-6.45-2.46h0c-1.1-2.33.37-5.34,3.37-6.39a64.83,64.83,0,0,1,42.82,0c3,1,4.47,4.06,3.37,6.39h0a5.22,5.22,0,0,1-6.43,2.46Z" transform="translate(-217.694 -182.456)" fill="#263238"/>
      <path id="Path_1279" data-name="Path 1279" d="M296.37,301.67a55.59,55.59,0,0,0-36.68,0,5.21,5.21,0,0,1-6.45-2.46h0c-1.1-2.33.37-5.34,3.37-6.39a64.83,64.83,0,0,1,42.82,0c3,1,4.47,4.06,3.37,6.39h0a5.22,5.22,0,0,1-6.43,2.46Z" transform="translate(-217.694 -182.456)" fill="#263238" opacity="0.4"/>
    </g>
  </g>
</svg>
